# 3ds Max Wavefront OBJ Exporter v0.97b - (c)2007 guruware
# File Created: 01.11.2012 16:35:09

mtllib scroll.mtl

#
# object Plane01
#

v  -5.1218 -0.6240 5.4581
v  -3.7182 -0.5033 5.4581
v  -3.7182 -0.5033 -6.3191
v  -5.1218 -0.6240 -6.3191
v  -4.3444 -1.6755 5.4581
v  3.3925 -1.2078 5.1635
v  3.3925 -1.2078 -6.0885
v  -4.3444 -1.6755 -6.0885
v  11.1294 0.0000 5.1635
v  11.1294 0.0000 -6.3191
v  12.5305 -0.2059 5.4581
v  12.5305 -0.2059 -6.3191
v  11.0571 -2.2447 5.4581
v  11.0571 -2.2447 -6.3191
v  12.5030 -2.9387 -6.3191
v  12.5030 -2.9387 5.4581
v  -5.8459 -0.8940 -6.3191
v  -5.8459 -0.8940 5.4581
v  13.3490 -1.5036 -6.3191
v  13.3490 -1.5036 5.4581
v  10.4590 -1.2865 5.4581
v  10.4590 -1.2865 -6.3191
v  -5.5190 0.6877 -6.3191
v  -5.5190 0.6877 5.4581
v  -4.4624 1.1559 -6.3191
v  -4.4624 1.1559 5.4581
v  -3.4050 0.7552 -6.3191
v  -3.4050 0.7552 5.4581
# 28 vertices

vn -0.0857 0.9963 -0.0000
vn -0.6490 0.7608 -0.0000
vn 0.2115 0.9774 -0.0000
vn -0.1068 0.9943 -0.0000
vn -0.1078 0.9942 -0.0000
vn 0.2194 0.9756 -0.0000
vn 0.0048 1.0000 -0.0000
vn -0.0030 1.0000 -0.0000
vn 0.5721 0.8202 -0.0000
vn 0.5455 0.8381 -0.0000
vn -0.6670 -0.7451 -0.0000
vn 0.2910 -0.9567 -0.0000
vn 0.9173 0.3982 -0.0000
vn 0.9032 0.4292 0.0000
vn 0.9999 0.0150 -0.0000
vn -0.8483 -0.5295 -0.0000
vn 0.7784 -0.6278 0.0000
vn 0.0275 -0.9996 -0.0000
vn 0.0275 -0.9996 0.0000
vn -0.8859 -0.4638 -0.0000
vn -0.8859 -0.4638 0.0000
# 21 vertex normals

vt 0.7122 0.0272 0.0000
vt 0.7122 0.0697 0.0000
vt 0.3564 0.0697 0.0000
vt 0.3564 0.0272 0.0000
vt 0.7122 0.2779 0.0000
vt 0.7033 0.5120 0.0000
vt 0.3634 0.5120 0.0000
vt 0.3634 0.2779 0.0000
vt 0.7033 0.7485 0.0000
vt 0.3564 0.7485 0.0000
vt 0.7122 0.7913 0.0000
vt 0.3564 0.7913 0.0000
vt 0.7122 0.9364 0.0000
vt 0.3564 0.9364 0.0000
vt 0.3564 0.8880 0.0000
vt 0.7122 0.8880 0.0000
vt 0.3564 0.2267 0.0000
vt 0.7122 0.2267 0.0000
vt 0.3564 0.8377 0.0000
vt 0.7122 0.8377 0.0000
vt 0.7122 0.9705 0.0000
vt 0.3564 0.9705 0.0000
vt 0.3564 0.1780 0.0000
vt 0.7122 0.1780 0.0000
vt 0.3564 0.1430 0.0000
vt 0.7122 0.1430 0.0000
vt 0.3564 0.1089 0.0000
vt 0.7122 0.1089 0.0000
# 28 texture coords

g Plane01
usemtl 03___Default
s 1
f 1/1/1 2/2/2 3/3/2 
f 3/3/2 4/4/1 1/1/1 
f 5/5/3 6/6/4 7/7/5 
f 7/7/5 8/8/6 5/5/3 
f 6/6/4 9/9/7 10/10/8 
f 10/10/8 7/7/5 6/6/4 
f 9/9/7 11/11/9 12/12/10 
f 12/12/10 10/10/8 9/9/7 
f 13/13/11 14/14/11 15/15/12 
f 15/15/12 16/16/12 13/13/11 
f 5/5/3 8/8/6 17/17/13 
f 17/17/13 18/18/14 5/5/3 
f 16/16/12 15/15/12 19/19/15 
f 19/19/15 20/20/15 16/16/12 
f 21/21/16 22/22/16 14/14/11 
f 14/14/11 13/13/11 21/21/16 
f 20/20/15 19/19/15 12/12/10 
f 12/12/10 11/11/9 20/20/15 
f 18/18/14 17/17/13 23/23/17 
f 23/23/17 24/24/17 18/18/14 
f 24/24/17 23/23/17 25/25/18 
f 25/25/18 26/26/19 24/24/17 
f 26/26/19 25/25/18 27/27/20 
f 27/27/20 28/28/21 26/26/19 
f 28/28/21 27/27/20 3/3/2 
f 3/3/2 2/2/2 28/28/21 
# 26 faces

