# 3ds Max Wavefront OBJ Exporter v0.97b - (c)2007 guruware
# File Created: 09.09.2012 00:20:50

mtllib bannister.mtl

#
# object Box08
#

v  -163.8401 172.1394 106.4930
v  -167.4575 172.1394 106.4930
v  -167.7103 115.4803 206.4816
v  -164.0929 115.4803 206.4816
v  -167.4575 146.3024 103.0140
v  -167.4575 172.1394 103.0140
v  -163.8401 172.1394 103.0140
v  -163.8401 146.3024 103.0140
v  -167.4575 144.6578 106.4930
v  -167.7103 87.9987 206.4816
v  -163.8401 146.3024 106.4930
v  -164.0929 89.6434 206.4816
v  -165.2442 142.3463 157.0232
v  -165.2442 142.3463 158.1651
v  -166.4056 142.3463 158.1651
v  -166.4056 142.3463 157.0232
v  -165.2442 146.7988 157.0232
v  -166.4056 146.7988 157.0232
v  -166.4056 146.7988 158.1651
v  -165.2442 146.7988 158.1651
v  -167.3226 119.6608 206.9975
v  -166.8610 120.6185 207.5675
v  -166.8610 176.9724 108.7680
v  -167.3226 176.0148 108.1980
v  -165.7466 121.0151 207.8036
v  -165.7466 177.3691 109.0041
v  -164.6322 120.6185 207.5675
v  -164.6322 176.9724 108.7680
v  -164.1705 119.6608 206.9975
v  -164.1706 176.0148 108.1980
v  -164.6322 118.7032 206.4276
v  -164.6322 175.0572 107.6281
v  -165.7466 118.3066 206.1915
v  -165.7466 174.6606 107.3920
v  -166.8610 118.7032 206.4276
v  -166.8610 175.0572 107.6281
v  -165.2442 169.5293 109.4120
v  -165.2442 169.5293 110.5539
v  -166.4056 169.5293 110.5539
v  -166.4056 169.5293 109.4120
v  -165.2442 173.9818 109.4120
v  -166.4056 173.9818 109.4120
v  -166.4056 173.9818 110.5539
v  -165.2442 173.9818 110.5539
v  -172.2810 27.0485 206.7792
v  -172.0282 27.0359 106.7906
v  -168.4108 27.0359 106.7906
v  -168.6636 27.0485 206.7792
v  -172.2810 109.5319 206.7792
v  -168.6636 109.5319 206.7792
v  -168.4108 52.8729 106.7906
v  -172.0282 52.8729 106.7906
v  -170.8769 79.7388 156.2490
v  -170.8769 79.7388 155.1071
v  -169.7155 79.7388 155.1071
v  -169.7155 79.7388 156.2490
v  -170.8769 84.1913 156.2490
v  -169.7155 84.1913 156.2490
v  -169.7155 84.1913 155.1071
v  -170.8769 84.1913 155.1071
v  -170.8769 53.2713 109.3936
v  -170.8769 53.2713 108.2518
v  -169.7155 53.2713 108.2518
v  -169.7155 53.2713 109.3936
v  -170.8769 57.7238 109.3936
v  -169.7155 57.7238 109.3936
v  -169.7155 57.7238 108.2518
v  -170.8769 57.7238 108.2518
v  -168.7984 57.0534 106.2747
v  -169.2601 58.0110 105.7047
v  -169.2601 114.3650 204.5042
v  -168.7984 113.4074 205.0742
v  -170.3745 58.4077 105.4686
v  -170.3745 114.7617 204.2681
v  -171.4889 58.0110 105.7047
v  -171.4889 114.3650 204.5042
v  -171.9505 57.0534 106.2747
v  -171.9505 113.4074 205.0742
v  -171.4889 56.0958 106.8447
v  -171.4889 112.4498 205.6442
v  -170.3745 55.6991 107.0808
v  -170.3745 112.0531 205.8803
v  -169.2601 56.0958 106.8447
v  -169.2601 112.4498 205.6442
v  -170.8769 106.9219 203.8602
v  -170.8769 106.9219 202.7184
v  -169.7155 106.9219 202.7184
v  -169.7155 106.9219 203.8602
v  -170.8769 111.3743 203.8602
v  -169.7155 111.3743 203.8602
v  -169.7155 111.3743 202.7184
v  -170.8769 111.3743 202.7184
v  -227.1294 146.3024 106.4930
v  -227.1294 172.1394 106.4930
v  -227.1294 172.1394 103.0140
v  -227.1294 146.3024 103.0140
v  -171.8875 171.7691 105.4916
v  -171.8875 171.7691 104.1872
v  -170.6483 171.7691 104.1872
v  -170.6483 171.7691 105.4916
v  -171.8875 180.6855 105.4916
v  -170.6483 180.6855 105.4916
v  -170.6483 180.6855 104.1872
v  -171.8875 180.6855 104.1872
v  -165.3136 179.7587 106.8238
v  -165.3136 181.2186 106.2191
v  -230.1179 181.2186 106.2191
v  -230.1179 179.7587 106.8238
v  -165.3136 181.8233 104.7592
v  -230.1179 181.8233 104.7592
v  -165.3136 181.2186 103.2993
v  -230.1179 181.2186 103.2993
v  -165.3136 179.7587 102.6946
v  -230.1179 179.7587 102.6946
v  -165.3136 178.2988 103.2993
v  -230.1179 178.2988 103.2993
v  -165.3136 177.6941 104.7592
v  -230.1179 177.6941 104.7592
v  -165.3136 178.2988 106.2191
v  -230.1179 178.2988 106.2191
v  -222.1144 171.7691 105.2720
v  -222.1144 171.7691 103.9677
v  -220.8752 171.7691 103.9677
v  -220.8752 171.7691 105.2720
v  -222.1144 180.6855 105.2720
v  -220.8752 180.6855 105.2720
v  -220.8752 180.6855 103.9677
v  -222.1144 180.6855 103.9677
v  -164.0929 87.9987 206.4816
v  -163.8401 144.6578 106.4930
v  -108.1678 144.6578 106.4930
v  -108.4206 87.9987 206.4816
# 132 vertices

vn 0.0000 0.6686 0.7436
vn -0.0000 0.0000 -1.0000
vn -1.0000 0.0000 0.0000
vn -0.9999 -0.0000 -0.0105
vn 0.9999 0.0000 0.0105
vn 0.0000 -1.0000 -0.0000
vn 0.0000 1.0000 -0.0000
vn 0.0000 0.0000 1.0000
vn 1.0000 0.0000 -0.0000
vn -0.9636 -0.1782 -0.1995
vn -0.4568 0.5926 0.6634
vn -0.3761 0.6173 0.6910
vn -0.9636 0.1782 0.1995
vn 0.0000 0.6662 0.7458
vn 0.4568 0.5926 0.6634
vn 0.3761 0.6173 0.6910
vn 0.9636 -0.1782 -0.1995
vn 0.9636 0.1782 0.1995
vn 0.3761 -0.6173 -0.6910
vn 0.4568 -0.5926 -0.6634
vn -0.0000 -0.6662 -0.7458
vn -0.3761 -0.6173 -0.6910
vn -0.4568 -0.5926 -0.6634
vn 0.0000 -1.0000 0.0002
vn -0.0000 0.6686 -0.7436
vn 0.9999 -0.0000 0.0105
vn -0.9999 0.0000 -0.0105
vn 0.9636 -0.1782 0.1995
vn 0.4568 0.5926 -0.6634
vn 0.3761 0.6173 -0.6910
vn 0.9636 0.1782 -0.1995
vn -0.0000 0.6662 -0.7458
vn -0.4568 0.5926 -0.6634
vn -0.3761 0.6173 -0.6910
vn -0.9636 -0.1782 0.1995
vn -0.9636 0.1782 -0.1995
vn -0.3761 -0.6173 0.6910
vn -0.4568 -0.5926 0.6634
vn 0.0000 -0.6662 0.7458
vn 0.3761 -0.6173 0.6910
vn 0.4568 -0.5926 0.6634
vn -0.0000 -0.2902 -0.9570
vn 0.0000 0.0000 -0.0000
vn 0.0000 -0.0000 1.0000
vn -0.0000 1.0000 0.0000
vn -0.0000 -0.0000 -1.0000
vn -0.0096 -0.7330 -0.6801
vn -0.0000 0.2902 0.9570
vn 0.0000 0.2902 0.9570
vn -0.0000 -0.2902 0.9570
vn 0.0000 -0.2902 0.9570
vn 0.0000 0.5211 0.8535
vn -0.0000 1.0000 -0.0000
vn -0.0000 0.5211 -0.8535
vn -0.0000 -0.5211 -0.8535
vn 0.0000 -0.5211 0.8535
vn -0.0000 0.0000 1.0000
vn -0.0000 -0.6686 -0.7436
vn 0.0093 0.6685 0.7436
vn -0.0000 -0.7331 -0.6802
# 60 vertex normals

vt 0.4542 0.0688 0.0000
vt 0.4819 0.0688 0.0000
vt 0.4839 0.2743 0.0000
vt 0.4561 0.2743 0.0000
vt 0.7538 0.4317 0.0000
vt 0.7538 0.3452 0.0000
vt 0.7840 0.3404 0.0000
vt 0.7840 0.4317 0.0000
vt 0.6937 0.4520 0.0000
vt 0.9700 0.4466 0.0000
vt 0.8972 0.5147 0.0000
vt 0.6209 0.5201 0.0000
vt 0.5637 0.5179 0.0000
vt 0.4938 0.4556 0.0000
vt 0.7702 0.4545 0.0000
vt 0.8401 0.5169 0.0000
vt 0.8390 0.9430 0.0000
vt 0.8390 0.9451 0.0000
vt 0.8300 0.9451 0.0000
vt 0.8300 0.9430 0.0000
vt 0.9482 0.9123 0.0000
vt 0.9393 0.9123 0.0000
vt 0.9393 0.9102 0.0000
vt 0.9482 0.9102 0.0000
vt 0.8013 0.9073 0.0000
vt 0.8013 0.8984 0.0000
vt 0.8174 0.8984 0.0000
vt 0.8174 0.9073 0.0000
vt 0.9348 0.8629 0.0000
vt 0.9347 0.8608 0.0000
vt 0.9508 0.8597 0.0000
vt 0.9509 0.8618 0.0000
vt 0.8928 0.9191 0.0000
vt 0.8928 0.9102 0.0000
vt 0.9089 0.9102 0.0000
vt 0.9089 0.9191 0.0000
vt 0.9105 0.8999 0.0000
vt 0.9105 0.8978 0.0000
vt 0.9266 0.8978 0.0000
vt 0.9266 0.8999 0.0000
vt 0.9047 0.9137 0.0000
vt 0.9029 0.9185 0.0000
vt 0.6288 0.9196 0.0000
vt 0.6306 0.9149 0.0000
vt 0.9021 0.9257 0.0000
vt 0.6280 0.9269 0.0000
vt 0.8533 0.9384 0.0000
vt 0.8542 0.9471 0.0000
vt 0.5802 0.9515 0.0000
vt 0.5792 0.9429 0.0000
vt 0.8562 0.9510 0.0000
vt 0.5821 0.9554 0.0000
vt 0.4926 0.3062 0.0000
vt 0.4905 0.3016 0.0000
vt 0.7645 0.2925 0.0000
vt 0.7665 0.2971 0.0000
vt 0.4895 0.2943 0.0000
vt 0.7634 0.2852 0.0000
vt 0.6447 0.9677 0.0000
vt 0.6456 0.9591 0.0000
vt 0.9197 0.9640 0.0000
vt 0.9187 0.9727 0.0000
vt 0.6476 0.9552 0.0000
vt 0.9216 0.9601 0.0000
vt 0.8684 0.9483 0.0000
vt 0.8684 0.9504 0.0000
vt 0.8595 0.9504 0.0000
vt 0.8595 0.9483 0.0000
vt 0.8684 0.9222 0.0000
vt 0.8595 0.9222 0.0000
vt 0.8595 0.9201 0.0000
vt 0.8684 0.9201 0.0000
vt 0.8640 0.8674 0.0000
vt 0.8640 0.8585 0.0000
vt 0.8801 0.8585 0.0000
vt 0.8801 0.8674 0.0000
vt 0.8640 0.9391 0.0000
vt 0.8640 0.9370 0.0000
vt 0.8801 0.9370 0.0000
vt 0.8801 0.9391 0.0000
vt 0.8537 0.9085 0.0000
vt 0.8531 0.8997 0.0000
vt 0.8692 0.8985 0.0000
vt 0.8698 0.9074 0.0000
vt 0.8741 0.8789 0.0000
vt 0.8741 0.8768 0.0000
vt 0.8903 0.8768 0.0000
vt 0.8903 0.8789 0.0000
vt 0.4187 0.7539 0.0000
vt 0.6035 0.7558 0.0000
vt 0.6035 0.7836 0.0000
vt 0.4187 0.7816 0.0000
vt 0.7887 0.2252 0.0000
vt 0.7887 0.2529 0.0000
vt 0.5832 0.2549 0.0000
vt 0.5832 0.2271 0.0000
vt 0.5508 0.5873 0.0000
vt 0.5771 0.5876 0.0000
vt 0.5688 0.6913 0.0000
vt 0.5425 0.6910 0.0000
vt 0.0913 0.7588 0.0000
vt 0.2273 0.7580 0.0000
vt 0.2278 0.8118 0.0000
vt 0.0930 0.9306 0.0000
vt 0.4895 0.2549 0.0000
vt 0.4895 0.2271 0.0000
vt 0.5121 0.2174 0.0000
vt 0.5121 0.0326 0.0000
vt 0.8113 0.0326 0.0000
vt 0.6058 0.2174 0.0000
vt 0.9019 0.9308 0.0000
vt 0.9018 0.9287 0.0000
vt 0.9107 0.9281 0.0000
vt 0.9108 0.9302 0.0000
vt 0.9283 0.0468 0.0000
vt 0.9372 0.0468 0.0000
vt 0.9372 0.0489 0.0000
vt 0.9283 0.0489 0.0000
vt 0.8191 0.0885 0.0000
vt 0.8191 0.0796 0.0000
vt 0.8352 0.0796 0.0000
vt 0.8352 0.0885 0.0000
vt 0.8191 0.1209 0.0000
vt 0.8191 0.1188 0.0000
vt 0.8352 0.1188 0.0000
vt 0.8352 0.1209 0.0000
vt 0.4023 0.9854 0.0000
vt 0.4023 0.9765 0.0000
vt 0.4185 0.9765 0.0000
vt 0.4185 0.9854 0.0000
vt 0.4488 0.9786 0.0000
vt 0.4488 0.9765 0.0000
vt 0.4650 0.9765 0.0000
vt 0.4650 0.9786 0.0000
vt 0.9206 0.8789 0.0000
vt 0.9206 0.8768 0.0000
vt 0.9295 0.8768 0.0000
vt 0.9295 0.8789 0.0000
vt 0.9570 0.8585 0.0000
vt 0.9659 0.8585 0.0000
vt 0.9659 0.8606 0.0000
vt 0.9570 0.8606 0.0000
vt 0.8013 0.9465 0.0000
vt 0.8013 0.9376 0.0000
vt 0.8174 0.9376 0.0000
vt 0.8174 0.9465 0.0000
vt 0.8656 0.0817 0.0000
vt 0.8656 0.0796 0.0000
vt 0.8818 0.0796 0.0000
vt 0.8818 0.0817 0.0000
vt 0.8640 0.9067 0.0000
vt 0.8640 0.8978 0.0000
vt 0.8801 0.8978 0.0000
vt 0.8801 0.9067 0.0000
vt 0.8741 0.8456 0.0000
vt 0.8741 0.8435 0.0000
vt 0.8903 0.8435 0.0000
vt 0.8903 0.8456 0.0000
vt 0.7801 0.9656 0.0000
vt 0.7783 0.9703 0.0000
vt 0.5042 0.9714 0.0000
vt 0.5060 0.9667 0.0000
vt 0.7775 0.9775 0.0000
vt 0.5034 0.9787 0.0000
vt 0.7775 0.9182 0.0000
vt 0.7784 0.9268 0.0000
vt 0.5043 0.9313 0.0000
vt 0.5034 0.9226 0.0000
vt 0.7803 0.9308 0.0000
vt 0.5063 0.9352 0.0000
vt 0.5065 0.8552 0.0000
vt 0.5044 0.8505 0.0000
vt 0.7784 0.8415 0.0000
vt 0.7804 0.8461 0.0000
vt 0.5034 0.8433 0.0000
vt 0.7774 0.8342 0.0000
vt 0.5034 0.8905 0.0000
vt 0.5043 0.8819 0.0000
vt 0.7784 0.8868 0.0000
vt 0.7775 0.8954 0.0000
vt 0.5063 0.8780 0.0000
vt 0.7804 0.8829 0.0000
vt 0.8304 0.8463 0.0000
vt 0.8386 0.8435 0.0000
vt 0.8274 0.8504 0.0000
vt 0.9806 0.0121 0.0000
vt 0.9806 0.0100 0.0000
vt 0.9896 0.0100 0.0000
vt 0.9896 0.0121 0.0000
vt 0.9206 0.8435 0.0000
vt 0.9295 0.8435 0.0000
vt 0.9295 0.8456 0.0000
vt 0.9206 0.8456 0.0000
vt 0.9105 0.8674 0.0000
vt 0.9105 0.8585 0.0000
vt 0.9266 0.8585 0.0000
vt 0.9266 0.8674 0.0000
vt 0.8818 0.0489 0.0000
vt 0.8818 0.0468 0.0000
vt 0.8979 0.0468 0.0000
vt 0.8979 0.0489 0.0000
vt 0.8565 0.9477 0.0000
vt 0.8559 0.9388 0.0000
vt 0.8720 0.9377 0.0000
vt 0.8726 0.9466 0.0000
vt 0.8996 0.8984 0.0000
vt 0.8995 0.8963 0.0000
vt 0.9156 0.8952 0.0000
vt 0.9157 0.8973 0.0000
vt 0.8191 0.0100 0.0000
vt 0.9128 0.0100 0.0000
vt 0.9128 0.0164 0.0000
vt 0.8191 0.0164 0.0000
vt 0.7973 0.8617 0.0000
vt 0.8251 0.8617 0.0000
vt 0.8251 0.8682 0.0000
vt 0.7973 0.8682 0.0000
vt 0.5594 0.5227 0.0000
vt 0.4895 0.4604 0.0000
vt 0.2982 0.6889 0.0000
vt 0.2982 0.5817 0.0000
vt 0.5280 0.5817 0.0000
vt 0.5280 0.6825 0.0000
vt 0.3396 0.8682 0.0000
vt 0.3396 0.8617 0.0000
vt 0.4895 0.4317 0.0000
vt 0.4895 0.3429 0.0000
vt 0.7973 0.8909 0.0000
vt 0.7973 0.8974 0.0000
vt 0.3396 0.8974 0.0000
vt 0.3396 0.8909 0.0000
vt 0.8766 0.8986 0.0000
vt 0.8766 0.8962 0.0000
vt 0.8861 0.8962 0.0000
vt 0.8861 0.8986 0.0000
vt 0.8766 0.9133 0.0000
vt 0.8861 0.9133 0.0000
vt 0.8861 0.9157 0.0000
vt 0.8766 0.9157 0.0000
vt 0.8013 0.8680 0.0000
vt 0.8013 0.8585 0.0000
vt 0.8336 0.8585 0.0000
vt 0.8336 0.8680 0.0000
vt 0.9068 0.9727 0.0000
vt 0.9068 0.9702 0.0000
vt 0.9391 0.9702 0.0000
vt 0.9391 0.9727 0.0000
vt 0.8937 0.8815 0.0000
vt 0.8937 0.8720 0.0000
vt 0.9260 0.8720 0.0000
vt 0.9260 0.8815 0.0000
vt 0.8191 0.0492 0.0000
vt 0.8191 0.0468 0.0000
vt 0.8514 0.0468 0.0000
vt 0.8514 0.0492 0.0000
vt 0.8315 0.8534 0.0000
vt 0.8402 0.8536 0.0000
vt 0.8484 0.8508 0.0000
vt 0.8513 0.8467 0.0000
vt 0.8473 0.8437 0.0000
vt 0.8274 0.8838 0.0000
vt 0.8304 0.8796 0.0000
vt 0.8386 0.8768 0.0000
vt 0.8402 0.8870 0.0000
vt 0.8315 0.8868 0.0000
vt 0.8513 0.8801 0.0000
vt 0.8484 0.8842 0.0000
vt 0.8473 0.8770 0.0000
vt 0.8619 0.8660 0.0000
vt 0.8512 0.8737 0.0000
vt 0.8539 0.8694 0.0000
vt 0.8642 0.8760 0.0000
vt 0.8555 0.8765 0.0000
vt 0.8748 0.8683 0.0000
vt 0.8722 0.8727 0.0000
vt 0.8705 0.8656 0.0000
vt 0.3641 0.8770 0.0000
vt 0.3641 0.8717 0.0000
vt 0.8612 0.8717 0.0000
vt 0.8612 0.8770 0.0000
vt 0.8367 0.9201 0.0000
vt 0.8367 0.9228 0.0000
vt 0.3396 0.9228 0.0000
vt 0.3396 0.9201 0.0000
vt 0.8367 0.9255 0.0000
vt 0.3396 0.9255 0.0000
vt 0.8612 0.9051 0.0000
vt 0.8612 0.9104 0.0000
vt 0.3641 0.9104 0.0000
vt 0.3641 0.9051 0.0000
vt 0.8612 0.9157 0.0000
vt 0.3641 0.9157 0.0000
vt 0.8367 0.9483 0.0000
vt 0.8367 0.9510 0.0000
vt 0.3396 0.9510 0.0000
vt 0.3396 0.9483 0.0000
vt 0.8367 0.9537 0.0000
vt 0.3396 0.9537 0.0000
vt 0.3641 0.8823 0.0000
vt 0.8612 0.8823 0.0000
vt 0.8993 0.8687 0.0000
vt 0.8974 0.8658 0.0000
vt 0.9044 0.8705 0.0000
vt 0.9552 0.0174 0.0000
vt 0.9498 0.0175 0.0000
vt 0.9448 0.0154 0.0000
vt 0.9123 0.8676 0.0000
vt 0.9098 0.8700 0.0000
vt 0.9053 0.8629 0.0000
vt 0.9105 0.8647 0.0000
vt 0.9000 0.8634 0.0000
vt 0.9562 0.0121 0.0000
vt 0.9579 0.0152 0.0000
vt 0.9458 0.0101 0.0000
vt 0.9513 0.0100 0.0000
vt 0.9432 0.0123 0.0000
vt 0.8478 0.8933 0.0000
vt 0.8478 0.8909 0.0000
vt 0.8573 0.8909 0.0000
vt 0.8573 0.8933 0.0000
vt 0.8478 0.8617 0.0000
vt 0.8573 0.8617 0.0000
vt 0.8573 0.8641 0.0000
vt 0.8478 0.8641 0.0000
vt 0.8937 0.9157 0.0000
vt 0.8937 0.9062 0.0000
vt 0.9260 0.9062 0.0000
vt 0.9260 0.9157 0.0000
vt 0.3396 0.9789 0.0000
vt 0.3396 0.9765 0.0000
vt 0.3719 0.9765 0.0000
vt 0.3719 0.9789 0.0000
vt 0.8937 0.8986 0.0000
vt 0.8937 0.8891 0.0000
vt 0.9260 0.8891 0.0000
vt 0.9260 0.8986 0.0000
vt 0.8300 0.9126 0.0000
vt 0.8300 0.9102 0.0000
vt 0.8624 0.9102 0.0000
vt 0.8624 0.9126 0.0000
vt 0.4667 0.3152 0.0000
vt 0.4586 0.3068 0.0000
vt 0.4390 0.3152 0.0000
vt 0.5682 0.5219 0.0000
vt 0.0100 0.5495 0.0000
vt 0.0119 0.3439 0.0000
vt 0.0321 0.3517 0.0000
vt 0.0313 0.6820 0.0000
vt 0.0296 0.1072 0.0000
vt 0.4566 0.1013 0.0000
vt 0.0315 0.3128 0.0000
vt 0.9518 0.8926 0.0000
vt 0.9459 0.8930 0.0000
vt 0.0397 0.3380 0.0000
vt 0.1959 0.3517 0.0000
vt 0.1952 0.6820 0.0000
vt 0.8251 0.8909 0.0000
vt 0.8251 0.8974 0.0000
# 358 texture coords

g Box08
usemtl 13___Default
s 4
f 1/1/1 2/2/1 3/3/1 
f 3/3/1 4/4/1 1/1/1 
s 8
f 5/5/2 6/6/2 7/7/2 
f 8/8/2 5/5/2 7/7/2 
f 8/8/2 7/7/2 8/8/3 
s 16
f 9/9/4 10/10/4 3/11/4 
f 3/11/4 2/12/4 9/9/4 
s 64
f 11/13/5 1/14/5 4/15/5 
f 4/15/5 12/16/5 11/13/5 
s 2
f 13/17/6 14/18/6 15/19/6 
f 15/19/6 16/20/6 13/17/6 
s 4
f 17/21/7 18/22/7 19/23/7 
f 19/23/7 20/24/7 17/21/7 
s 8
f 13/25/2 16/26/2 18/27/2 
f 18/27/2 17/28/2 13/25/2 
s 16
f 16/29/3 15/30/3 19/31/3 
f 19/31/3 18/32/3 16/29/3 
s 32
f 15/33/8 14/34/8 20/35/8 
f 20/35/8 19/36/8 15/33/8 
s 64
f 14/37/9 13/38/9 17/39/9 
f 17/39/9 20/40/9 14/37/9 
s 8
f 21/41/10 22/42/11 23/43/12 
f 23/43/12 24/44/13 21/41/10 
f 22/42/11 25/45/14 26/46/14 
f 26/46/14 23/43/12 22/42/11 
f 25/47/14 27/48/15 28/49/16 
f 28/49/16 26/50/14 25/47/14 
f 27/48/15 29/51/17 30/52/18 
f 30/52/18 28/49/16 27/48/15 
f 29/53/17 31/54/19 32/55/20 
f 32/55/20 30/56/18 29/53/17 
f 31/54/19 33/57/21 34/58/21 
f 34/58/21 32/55/20 31/54/19 
f 33/59/21 35/60/22 36/61/23 
f 36/61/23 34/62/21 33/59/21 
f 35/60/22 21/63/10 24/64/13 
f 24/64/13 36/61/23 35/60/22 
s 2
f 37/65/6 38/66/6 39/67/6 
f 39/67/6 40/68/6 37/65/6 
s 4
f 41/69/7 42/70/7 43/71/7 
f 43/71/7 44/72/7 41/69/7 
s 8
f 37/73/2 40/74/2 42/75/2 
f 42/75/2 41/76/2 37/73/2 
s 16
f 40/77/3 39/78/3 43/79/3 
f 43/79/3 42/80/3 40/77/3 
s 32
f 39/81/8 38/82/8 44/83/8 
f 44/83/8 43/84/8 39/81/8 
s 64
f 38/85/9 37/86/9 41/87/9 
f 41/87/9 44/88/9 38/85/9 
s 2
f 45/89/24 46/90/24 47/91/24 
f 47/91/24 48/92/24 45/89/24 
s 4
f 49/93/25 50/94/25 51/95/25 
f 51/95/25 52/96/25 49/93/25 
s 8
f 45/97/8 48/98/8 50/99/8 
f 50/99/8 49/100/8 45/97/8 
s 16
f 48/101/26 47/102/5 51/103/26 
f 51/103/26 50/104/26 48/101/26 
s 32
f 47/105/2 46/106/2 52/96/2 
f 52/96/2 51/95/2 47/105/2 
s 64
f 46/107/27 45/108/27 49/109/27 
f 49/109/27 52/110/27 46/107/27 
s 2
f 53/111/6 54/112/6 55/113/6 
f 55/113/6 56/114/6 53/111/6 
s 4
f 57/115/7 58/116/7 59/117/7 
f 59/117/7 60/118/7 57/115/7 
s 8
f 53/119/8 56/120/8 58/121/8 
f 58/121/8 57/122/8 53/119/8 
s 16
f 56/123/9 55/124/9 59/125/9 
f 59/125/9 58/126/9 56/123/9 
s 32
f 55/127/2 54/128/2 60/129/2 
f 60/129/2 59/130/2 55/127/2 
s 64
f 54/131/3 53/132/3 57/133/3 
f 57/133/3 60/134/3 54/131/3 
s 2
f 61/135/6 62/136/6 63/137/6 
f 63/137/6 64/138/6 61/135/6 
s 4
f 65/139/7 66/140/7 67/141/7 
f 67/141/7 68/142/7 65/139/7 
s 8
f 61/143/8 64/144/8 66/145/8 
f 66/145/8 65/146/8 61/143/8 
s 16
f 64/147/9 63/148/9 67/149/9 
f 67/149/9 66/150/9 64/147/9 
s 32
f 63/151/2 62/152/2 68/153/2 
f 68/153/2 67/154/2 63/151/2 
s 64
f 62/155/3 61/156/3 65/157/3 
f 65/157/3 68/158/3 62/155/3 
s 8
f 69/159/28 70/160/29 71/161/30 
f 71/161/30 72/162/31 69/159/28 
f 70/160/29 73/163/32 74/164/32 
f 74/164/32 71/161/30 70/160/29 
f 73/165/32 75/166/33 76/167/34 
f 76/167/34 74/168/32 73/165/32 
f 75/166/33 77/169/35 78/170/36 
f 78/170/36 76/167/34 75/166/33 
f 77/171/35 79/172/37 80/173/38 
f 80/173/38 78/174/36 77/171/35 
f 79/172/37 81/175/39 82/176/39 
f 82/176/39 80/173/38 79/172/37 
f 81/177/39 83/178/40 84/179/41 
f 84/179/41 82/180/39 81/177/39 
f 83/178/40 69/181/28 72/182/31 
f 72/182/31 84/179/41 83/178/40 
s 1
f 83/183/42 81/184/42 69/185/42 
s 2
f 85/186/6 86/187/6 87/188/6 
f 87/188/6 88/189/6 85/186/6 
s 4
f 89/190/7 90/191/7 91/192/7 
f 91/192/7 92/193/7 89/190/7 
s 8
f 85/194/8 88/195/8 90/196/8 
f 90/196/8 89/197/8 85/194/8 
s 16
f 88/198/9 87/199/9 91/200/9 
f 91/200/9 90/201/9 88/198/9 
s 32
f 87/202/2 86/203/2 92/204/2 
f 92/204/2 91/205/2 87/202/2 
s 64
f 86/206/3 85/207/3 89/208/3 
f 89/208/3 92/209/3 86/206/3 
s off
f 93/210/3 94/211/3 95/212/3 
f 95/212/3 96/213/3 93/210/3 
f 2/214/7 1/215/7 7/216/7 
f 7/216/7 6/217/7 2/214/7 
f 11/13/43 11/13/43 8/218/43 
f 1/14/9 11/13/9 8/218/9 
f 1/14/9 8/218/9 7/219/9 
f 9/220/44 2/221/44 94/222/44 
f 94/222/8 93/223/8 9/220/8 
f 2/214/45 6/217/45 95/224/45 
f 95/224/45 94/225/45 2/214/45 
f 6/6/46 5/5/46 96/226/46 
f 96/226/2 95/227/2 6/6/2 
f 5/228/47 9/229/47 93/230/47 
f 93/230/6 96/231/6 5/228/6 
s 2
f 97/232/6 98/233/6 99/234/6 
f 99/234/6 100/235/6 97/232/6 
s 4
f 101/236/7 102/237/7 103/238/7 
f 103/238/7 104/239/7 101/236/7 
s 8
f 97/240/8 100/241/8 102/242/8 
f 102/242/8 101/243/8 97/240/8 
s 16
f 100/244/9 99/245/9 103/246/9 
f 103/246/9 102/247/9 100/244/9 
s 32
f 99/248/2 98/249/2 104/250/2 
f 104/250/2 103/251/2 99/248/2 
s 64
f 98/252/3 97/253/3 101/254/3 
f 101/254/3 104/255/3 98/252/3 
s 1
f 81/184/42 70/256/42 69/185/42 
f 81/184/42 73/257/42 70/256/42 
f 81/184/42 75/258/42 73/257/42 
f 81/184/42 77/259/42 75/258/42 
f 81/184/42 79/260/42 77/259/42 
s off
f 78/261/48 80/262/48 82/263/48 
f 74/264/48 76/265/48 78/261/48 
f 72/266/49 71/267/49 74/264/49 
f 82/263/49 84/268/49 72/266/49 
f 74/264/49 78/261/49 82/263/49 
f 82/263/48 72/266/48 74/264/48 
f 33/269/50 21/270/50 35/271/50 
f 25/272/51 22/273/51 21/270/51 
f 29/274/50 27/275/50 25/272/50 
f 33/269/51 31/276/51 29/274/51 
f 21/270/51 33/269/51 29/274/51 
f 29/274/51 25/272/51 21/270/51 
s 8
f 105/277/44 106/278/52 107/279/52 
f 107/279/52 108/280/44 105/277/44 
f 106/281/52 109/282/53 110/283/53 
f 110/283/53 107/284/52 106/281/52 
f 109/282/53 111/285/54 112/286/54 
f 112/286/54 110/283/53 109/282/53 
f 111/287/54 113/288/46 114/289/46 
f 114/289/46 112/290/54 111/287/54 
f 113/288/46 115/291/55 116/292/55 
f 116/292/55 114/289/46 113/288/46 
f 115/293/55 117/294/6 118/295/6 
f 118/295/6 116/296/55 115/293/55 
f 117/294/6 119/297/56 120/298/56 
f 120/298/56 118/295/6 117/294/6 
f 119/299/56 105/277/44 108/280/44 
f 108/280/44 120/300/56 119/299/56 
s 1
f 119/301/9 117/302/9 105/303/9 
f 112/304/3 114/305/3 116/306/3 
f 109/307/9 106/308/9 105/303/9 
f 113/309/9 111/310/9 109/307/9 
f 117/302/9 115/311/9 113/309/9 
f 105/303/9 117/302/9 113/309/9 
f 113/309/9 109/307/9 105/303/9 
f 107/312/3 110/313/3 112/304/3 
f 120/314/3 108/315/3 107/312/3 
f 116/306/3 118/316/3 120/314/3 
f 112/304/3 116/306/3 120/314/3 
f 120/314/3 107/312/3 112/304/3 
s 2
f 121/317/6 122/318/6 123/319/6 
f 123/319/6 124/320/6 121/317/6 
s 4
f 125/321/7 126/322/7 127/323/7 
f 127/323/7 128/324/7 125/321/7 
s 8
f 121/325/8 124/326/8 126/327/8 
f 126/327/8 125/328/8 121/325/8 
s 16
f 124/329/9 123/330/9 127/331/9 
f 127/331/9 126/332/9 124/329/9 
s 32
f 123/333/2 122/334/2 128/335/2 
f 128/335/2 127/336/2 123/333/2 
s 64
f 122/337/3 121/338/3 125/339/3 
f 125/339/3 128/340/3 122/337/3 
s off
f 4/4/44 3/3/44 10/341/44 
f 12/342/57 4/4/57 10/341/57 
f 12/342/44 10/341/44 129/343/44 
f 8/218/9 11/13/9 130/344/9 
f 10/345/58 9/346/58 130/347/58 
f 130/347/58 129/348/58 10/345/58 
f 131/349/59 11/350/59 12/342/59 
f 12/342/59 132/351/59 131/349/59 
f 11/352/43 131/353/43 11/352/43 
f 129/343/44 132/351/44 12/342/44 
f 11/354/2 131/355/2 130/347/2 
f 132/356/58 129/348/58 130/347/58 
f 130/347/58 131/355/58 132/356/58 
f 9/229/60 5/228/60 8/357/60 
f 8/357/60 130/358/60 9/229/60 
# 213 faces

