# 3ds Max Wavefront OBJ Exporter v0.97b - (c)2007 guruware
# File Created: 08.09.2012 22:17:32

mtllib billboard.mtl

#
# object Plane03
#

v  37.0605 127.8407 165.0006
v  37.0605 127.8407 34.8804
v  37.0605 58.3077 34.8804
v  37.0605 58.3076 165.0006
v  39.9414 58.3076 165.0006
v  39.9414 127.8407 165.0006
v  39.9415 127.8407 34.8804
v  39.9415 58.3077 34.8804
# 8 vertices

vn -1.0000 0.0000 -0.0000
vn -0.0000 -0.0000 1.0000
vn 0.0000 1.0000 0.0000
vn -0.0000 0.0000 -1.0000
vn -0.0000 -1.0000 -0.0000
# 5 vertex normals

vt 0.9835 0.5151 0.0000
vt 0.0236 0.5151 0.0000
vt 0.0236 0.0390 0.0000
vt 0.9835 0.0390 0.0000
vt 0.5722 0.6820 0.0000
vt 0.0382 0.6820 0.0000
vt 0.0382 0.6521 0.0000
vt 0.5722 0.6521 0.0000
vt 0.9918 0.6190 0.0000
vt 0.0100 0.6190 0.0000
vt 0.0100 0.5838 0.0000
vt 0.9918 0.5838 0.0000
vt 0.5757 0.7556 0.0000
vt 0.0434 0.7556 0.0000
vt 0.0434 0.7221 0.0000
vt 0.5757 0.7221 0.0000
vt 0.9935 0.5666 0.0000
vt 0.0135 0.5666 0.0000
vt 0.0135 0.5349 0.0000
vt 0.9935 0.5349 0.0000
# 20 texture coords

g Plane03
usemtl 07___Default
s 1
f 1/1/1 2/2/1 3/3/1 
f 3/3/1 4/4/1 1/1/1 
s off
f 5/5/2 6/6/2 1/7/2 
f 1/7/2 4/8/2 5/5/2 
f 6/9/3 7/10/3 2/11/3 
f 2/11/3 1/12/3 6/9/3 
f 7/13/4 8/14/4 3/15/4 
f 3/15/4 2/16/4 7/13/4 
f 8/17/5 5/18/5 4/19/5 
f 4/19/5 3/20/5 8/17/5 
# 10 faces

