# 3ds Max Wavefront OBJ Exporter v0.97b - (c)2007 guruware
# File Created: 17.09.2012 03:34:32

mtllib lower_floor.mtl

#
# object Plane01
#

v  -109.0812 27.8289 7.8031
v  39.3440 27.8289 -2.7556
v  13.5564 27.8289 -127.0513
v  -109.0812 27.8289 -127.0513
v  114.0250 27.8289 -2.7556
v  114.0228 27.8289 -127.0513
v  -109.0812 27.8389 201.0121
v  39.3440 27.8289 201.1814
v  39.3440 27.8289 162.2962
v  -109.0812 27.8289 162.2962
v  -109.0812 27.8289 94.3067
v  39.3440 27.8289 95.0822
v  -224.8789 27.8289 7.8031
v  -224.8789 27.8289 96.3639
v  343.3468 27.8289 -127.0513
v  343.3468 27.8289 -2.7556
v  114.0228 27.8289 -190.4662
v  13.5564 27.8289 -190.4662
v  39.3440 146.1676 201.1814
v  39.3440 146.1676 162.2962
v  -109.0812 146.1676 -127.0513
v  -109.0812 146.1676 7.8031
v  13.5564 146.1676 -127.0513
v  39.3440 146.1676 -2.7556
v  114.0250 146.1676 -2.7556
v  343.3468 146.1676 -127.0513
v  114.0228 146.1676 -127.0513
v  39.3440 146.1676 96.1557
v  -224.8789 146.1676 7.8031
v  -224.8789 146.1676 96.3465
v  343.3468 146.1676 -2.7556
v  13.5564 146.1676 -190.4662
v  114.0228 146.1676 -190.4662
v  -224.8789 27.8289 162.2962
v  -224.8789 146.1676 162.2962
v  7.0285 27.8289 201.1814
v  7.0285 146.1676 201.1814
v  -224.8863 146.1676 233.5379
v  -224.8863 27.8289 233.5379
v  -109.0812 27.8339 233.5177
v  -109.0812 146.1676 233.5185
v  -224.8733 146.1676 201.1923
v  -224.8733 27.8289 201.1923
v  -224.8789 27.8389 201.0121
v  -224.8789 27.8389 233.5168
v  -109.0812 27.8339 201.1992
v  -109.0812 146.1676 201.2001
v  -81.7562 146.1676 201.2001
v  -81.7562 27.8339 201.1992
# 49 vertices

vn 0.0000 1.0000 -0.0000
vn 0.0000 1.0000 -0.0002
vn 0.0001 1.0000 -0.0000
vn -0.0000 1.0000 -0.0003
vn 0.0000 0.0000 -0.0000
vn -1.0000 0.0000 -0.0000
vn 1.0000 0.0000 -0.0000
vn 0.0000 0.0000 1.0000
vn 0.0000 0.0000 -1.0000
vn 0.0002 0.0000 1.0000
vn 0.0002 -0.0000 1.0000
vn -1.0000 0.0000 -0.0004
vn -1.0000 0.0000 0.0001
vn 0.0000 1.0000 -0.0003
vn 0.0000 1.0000 0.0002
vn 0.0000 -0.0000 1.0000
# 16 vertex normals

vt 0.1159 0.2676 0.0000
vt 0.2291 0.2739 0.0000
vt 0.2123 0.4024 0.0000
vt 0.1189 0.4061 0.0000
vt 0.2859 0.2717 0.0000
vt 0.2887 0.3993 0.0000
vt 0.0933 0.1216 0.0000
vt 0.2062 0.1258 0.0000
vt 0.2054 0.1657 0.0000
vt 0.0924 0.1613 0.0000
vt 0.1140 0.1788 0.0000
vt 0.2269 0.1735 0.0000
vt 0.0278 0.2711 0.0000
vt 0.0258 0.1802 0.0000
vt 0.4632 0.3924 0.0000
vt 0.4604 0.2647 0.0000
vt 0.2901 0.4645 0.0000
vt 0.2137 0.4675 0.0000
vt 0.3610 0.7795 0.0000
vt 0.4240 0.7801 0.0000
vt 0.4220 0.9674 0.0000
vt 0.3591 0.9667 0.0000
vt 0.2417 0.7809 0.0000
vt 0.4412 0.7780 0.0000
vt 0.4437 0.9592 0.0000
vt 0.2443 0.9620 0.0000
vt 0.0484 0.7836 0.0000
vt 0.2298 0.7810 0.0000
vt 0.2323 0.9622 0.0000
vt 0.0509 0.9647 0.0000
vt 0.4240 0.7761 0.0000
vt 0.5449 0.7755 0.0000
vt 0.5460 0.9627 0.0000
vt 0.4251 0.9634 0.0000
vt 0.5384 0.7809 0.0000
vt 0.5383 0.9594 0.0000
vt 0.0536 0.9591 0.0000
vt 0.0537 0.7807 0.0000
vt 0.2453 0.7782 0.0000
vt 0.2465 0.9655 0.0000
vt 0.0863 0.9650 0.0000
vt 0.0869 0.7778 0.0000
vt 0.0669 0.5333 0.0000
vt 0.2826 0.5362 0.0000
vt 0.2799 0.7367 0.0000
vt 0.0642 0.7338 0.0000
vt 0.5467 0.5196 0.0000
vt 0.5483 0.7400 0.0000
vt 0.3984 0.7412 0.0000
vt 0.3967 0.5207 0.0000
vt 0.0527 0.7781 0.0000
vt 0.0538 0.9654 0.0000
vt 0.5952 0.7799 0.0000
vt 0.5926 0.9610 0.0000
vt 0.4988 0.9596 0.0000
vt 0.5014 0.7784 0.0000
vt 0.6294 0.7818 0.0000
vt 0.7232 0.7818 0.0000
vt 0.7231 0.9630 0.0000
vt 0.6293 0.9629 0.0000
vt 0.1124 0.1089 0.0000
vt 0.2254 0.1044 0.0000
vt 0.3541 0.7785 0.0000
vt 0.3536 0.9658 0.0000
vt 0.2850 0.5215 0.0000
vt 0.2867 0.7420 0.0000
vt 0.0243 0.1124 0.0000
vt 0.7940 0.5091 0.0000
vt 0.7944 0.7362 0.0000
vt 0.7405 0.7364 0.0000
vt 0.7401 0.5092 0.0000
vt 0.0528 0.7468 0.0000
vt 0.0520 0.5070 0.0000
vt 0.2744 0.5062 0.0000
vt 0.2751 0.7460 0.0000
vt 0.4641 0.7481 0.0000
vt 0.4674 0.5082 0.0000
vt 0.5295 0.5092 0.0000
vt 0.5262 0.7490 0.0000
vt 0.3894 0.7469 0.0000
vt 0.3927 0.5071 0.0000
vt 0.0471 0.3690 0.0000
vt -0.1309 0.0804 0.0000
vt -0.1309 0.1371 0.0000
vt 0.0235 0.0727 0.0000
vt 0.1116 0.0692 0.0000
vt 0.9900 0.0176 0.0000
vt -0.1309 0.1847 0.0000
vt 0.0227 0.0393 0.0000
vt 0.1109 0.0358 0.0000
vt 0.0919 0.3876 0.0000
vt 0.4584 0.9604 0.0000
vt 0.3003 0.9594 0.0000
vt 0.3015 0.7771 0.0000
vt 0.4596 0.7781 0.0000
vt 0.0795 -0.0696 0.0000
vt 0.2615 -0.0696 0.0000
vt 0.4922 0.9652 0.0000
vt 0.3378 0.9655 0.0000
vt 0.3374 0.7781 0.0000
vt 0.4919 0.7778 0.0000
vt 0.3571 0.5047 0.0000
vt 0.3583 0.7445 0.0000
vt 0.2963 0.7449 0.0000
vt 0.2950 0.5051 0.0000
vt 0.5163 0.0907 0.0000
vt 0.6895 0.7397 0.0000
vt 0.6382 0.7393 0.0000
vt 0.6400 0.5118 0.0000
vt 0.6913 0.5122 0.0000
# 110 texture coords

g Plane01
usemtl 03___Default
s off
f 1/1/1 2/2/1 3/3/1 
f 3/3/1 4/4/1 1/1/1 
f 2/2/1 5/5/1 6/6/1 
f 6/6/1 3/3/1 2/2/1 
s 1
f 7/7/2 8/8/3 9/9/3 
f 9/9/3 10/10/4 7/7/2 
f 1/1/1 11/11/1 12/12/1 
f 12/12/1 2/2/1 1/1/1 
s off
f 13/13/1 14/14/1 11/11/1 
f 11/11/1 1/1/1 13/13/1 
f 15/15/5 15/15/5 6/6/5 
f 16/16/1 15/15/1 6/6/1 
f 5/5/1 16/16/1 6/6/1 
f 3/3/1 6/6/1 17/17/1 
f 3/3/1 17/17/1 18/18/1 
f 3/3/5 18/18/5 18/18/5 
f 9/19/6 8/20/6 19/21/6 
f 19/21/6 20/22/6 9/19/6 
f 1/23/7 4/24/7 21/25/7 
f 21/25/7 22/26/7 1/23/7 
f 4/27/8 3/28/8 23/29/8 
f 23/29/8 21/30/8 4/27/8 
f 5/31/9 2/32/9 24/33/9 
f 24/33/9 25/34/9 5/31/9 
f 15/35/8 26/36/8 27/37/8 
f 27/37/8 6/38/8 15/35/8 
f 12/39/6 28/40/6 24/41/6 
f 24/41/6 2/42/6 12/39/6 
f 13/43/8 1/44/8 22/45/8 
f 22/45/8 29/46/8 13/43/8 
f 13/47/7 29/48/7 30/49/7 
f 30/49/7 14/50/7 13/47/7 
f 16/51/9 5/31/9 25/34/9 
f 25/34/9 31/52/9 16/51/9 
f 18/53/7 32/54/7 23/55/7 
f 23/55/7 3/56/7 18/53/7 
f 17/57/6 6/58/6 27/59/6 
f 27/59/6 33/60/6 17/57/6 
s 1
f 10/61/7 10/61/7 10/61/1 
f 11/11/1 10/61/7 10/61/1 
f 11/11/1 10/61/1 9/62/1 
f 11/11/1 9/62/1 12/12/1 
s off
f 9/63/6 20/64/6 28/40/6 
f 28/40/6 12/39/6 9/63/6 
f 34/65/5 34/65/5 34/65/5 
f 34/65/5 34/65/5 14/50/5 
f 35/66/7 34/65/7 14/50/7 
f 30/49/7 35/66/7 14/50/7 
f 14/14/1 34/67/1 10/61/1 
f 10/61/1 11/11/1 14/14/1 
f 19/68/9 8/69/9 36/70/9 
f 36/70/9 37/71/9 19/68/9 
f 38/72/10 39/73/10 40/74/10 
f 40/74/11 41/75/11 38/72/11 
f 42/76/12 43/77/12 39/78/12 
f 39/78/12 38/79/12 42/76/12 
f 35/80/5 34/81/5 34/81/5 
f 35/80/13 34/81/13 43/77/13 
f 42/76/13 35/80/13 43/77/13 
f 10/82/5 10/82/5 10/82/5 
f 10/82/5 10/82/5 10/82/5 
f 34/83/5 44/84/5 44/84/5 
f 44/84/5 34/83/5 34/83/5 
f 44/85/14 7/86/14 10/61/14 
f 10/61/14 34/67/14 44/85/14 
f 34/87/5 34/87/5 34/87/5 
f 44/84/5 45/88/5 44/84/5 
f 45/89/5 40/90/5 40/90/5 
f 45/89/15 40/90/15 7/86/15 
f 44/85/1 45/89/1 7/86/1 
f 18/91/5 17/91/5 18/91/5 
f 33/92/8 32/93/8 18/94/8 
f 18/94/8 17/95/8 33/92/8 
f 15/96/5 16/97/5 15/96/5 
f 31/98/6 26/99/6 15/100/6 
f 15/100/6 16/101/6 31/98/6 
f 46/102/7 47/103/7 41/104/7 
f 41/104/7 40/105/7 46/102/7 
f 40/106/5 40/106/5 40/106/5 
f 48/107/16 47/108/16 46/109/16 
f 46/109/16 49/110/16 48/107/16 
# 81 faces

