# 3ds Max Wavefront OBJ Exporter v0.97b - (c)2007 guruware
# File Created: 04.11.2012 09:29:27

mtllib MenuTitle.mtl

#
# object Box002
#

v  -106.1876 23.1478 12.1563
v  103.8124 23.1478 -72.8438
v  103.8124 23.1478 12.1563
v  -106.1876 23.2478 12.1563
v  103.8124 23.2478 -72.8438
v  -106.1876 23.2478 -72.8438
v  103.8124 23.2478 12.1563
v  -106.1876 23.1478 -72.8438
# 8 vertices

vn 0.0000 -1.0000 -0.0000
vn 0.0000 1.0000 -0.0000
vn 0.0000 0.0000 1.0000
vn 1.0000 0.0000 -0.0000
vn 0.0000 0.0000 -1.0000
vn -1.0000 0.0000 -0.0000
# 6 vertex normals

vt 1.0000 0.0000 0.0000
vt 0.0000 1.0000 0.0000
vt 0.0000 0.0000 0.0000
vt 1.0000 1.0000 0.0000
# 4 texture coords

g Box002
usemtl Material__25
s 2
f 1/1/1 2/2/1 3/3/1 
s 4
f 4/3/2 5/4/2 6/2/2 
s 8
f 1/3/3 7/4/3 4/2/3 
s 16
f 3/3/4 5/4/4 7/2/4 
s 32
f 2/3/5 6/4/5 5/2/5 
s 64
f 8/3/6 4/4/6 6/2/6 
s 2
f 1/1/1 8/4/1 2/2/1 
s 4
f 4/3/2 7/1/2 5/4/2 
s 8
f 1/3/3 3/1/3 7/4/3 
s 16
f 3/3/4 2/1/4 5/4/4 
s 32
f 2/3/5 8/1/5 6/4/5 
s 64
f 8/3/6 1/1/6 4/4/6 
# 0 polygons - 12 triangles

