# 3ds Max Wavefront OBJ Exporter v0.97b - (c)2007 guruware
# File Created: 01.11.2012 12:54:07

mtllib reticule.mtl

#
# object Cylinder002
#

v  18.7939 0.0000 -6.8404
v  15.3209 0.0000 -12.8558
v  15.3209 2.0000 -12.8558
v  18.7939 2.0000 -6.8404
v  10.0000 0.0000 -17.3205
v  10.0000 2.0000 -17.3205
v  3.4730 0.0000 -19.6962
v  3.4730 2.0000 -19.6962
v  -3.4730 0.0000 -19.6962
v  -10.0000 0.0000 -17.3205
v  -10.0000 2.0000 -17.3205
v  -3.4730 2.0000 -19.6962
v  -15.3209 0.0000 -12.8558
v  -15.3209 2.0000 -12.8558
v  -18.7939 0.0000 -6.8404
v  -18.7939 2.0000 -6.8404
v  -18.7939 0.0000 6.8404
v  -15.3209 0.0000 12.8557
v  -15.3209 2.0000 12.8557
v  -18.7939 2.0000 6.8404
v  -10.0000 0.0000 17.3205
v  -10.0000 2.0000 17.3205
v  -3.4730 0.0000 19.6962
v  -3.4730 2.0000 19.6962
v  3.4730 0.0000 19.6962
v  10.0000 0.0000 17.3205
v  10.0000 2.0000 17.3205
v  3.4730 2.0000 19.6962
v  15.3209 0.0000 12.8558
v  15.3209 2.0000 12.8558
v  18.7939 0.0000 6.8404
v  18.7939 2.0000 6.8404
v  12.3591 0.0000 10.3705
v  12.3591 2.0000 10.3705
v  15.1607 2.0000 5.5181
v  15.1607 0.0000 5.5181
v  12.3591 0.0000 -10.3705
v  15.1607 0.0000 -5.5180
v  15.1607 2.0000 -5.5180
v  12.3591 2.0000 -10.3705
v  8.0668 0.0000 -13.9722
v  8.0668 2.0000 -13.9722
v  2.8016 0.0000 -15.8886
v  2.8016 2.0000 -15.8886
v  -8.0668 0.0000 -13.9722
v  -2.8016 0.0000 -15.8886
v  -2.8016 2.0000 -15.8886
v  -8.0668 2.0000 -13.9722
v  -12.3591 0.0000 -10.3705
v  -12.3591 2.0000 -10.3705
v  -15.1607 0.0000 -5.5180
v  -15.1607 2.0000 -5.5180
v  -12.3591 0.0000 10.3705
v  -15.1607 0.0000 5.5180
v  -15.1607 2.0000 5.5180
v  -12.3591 2.0000 10.3705
v  -8.0669 0.0000 13.9722
v  -8.0669 2.0000 13.9722
v  -2.8016 0.0000 15.8886
v  -2.8016 2.0000 15.8886
v  8.0668 0.0000 13.9722
v  2.8016 0.0000 15.8886
v  2.8016 2.0000 15.8886
v  8.0668 2.0000 13.9722
v  -15.7810 2.0000 -2.0000
v  -18.2460 2.0000 -2.0000
v  -20.0000 2.0000 -0.0000
v  -19.6474 2.0000 2.0000
v  -16.1337 2.0000 -0.0000
v  -16.9115 2.0000 2.0000
v  -18.2460 0.0000 -2.0000
v  -19.6473 0.0000 -2.0000
v  -15.7810 0.0000 2.0000
v  -16.9115 0.0000 2.0000
v  15.7810 0.0000 -2.0000
v  19.6473 0.0000 -2.0000
v  19.6473 0.0000 2.0000
v  19.6473 2.0000 2.0000
v  15.7810 2.0000 -2.0000
v  19.6473 2.0000 -2.0000
v  16.9115 2.0000 -2.0000
v  15.7810 2.0000 2.0000
v  15.7810 0.0000 2.0000
v  16.1337 0.0000 -0.0000
v  20.0000 0.0000 0.0000
v  16.1337 2.0000 -0.0000
v  20.0000 2.0000 0.0000
v  30.0000 0.0000 2.0000
v  30.0000 2.0000 2.0000
v  30.0000 2.0000 -2.0000
v  30.0000 0.0000 -2.0000
v  10.0000 0.0000 -2.0000
v  10.0000 2.0000 -2.0000
v  10.0000 0.0000 2.0000
v  10.0000 2.0000 2.0000
v  -2.0000 0.0000 19.6962
v  -2.0000 2.0000 19.6962
v  2.0000 0.0000 19.6962
v  2.0000 0.0000 18.8023
v  2.0000 0.0000 15.8886
v  2.0000 2.0000 15.8886
v  -2.0000 0.0000 15.8886
v  -2.0000 0.0000 16.3750
v  2.0000 2.0000 19.6962
v  2.0000 2.0000 18.8023
v  -2.0000 2.0000 16.3750
v  -2.0000 2.0000 15.8886
v  -2.0000 0.0000 30.0000
v  2.0000 0.0000 30.0000
v  -2.0000 2.0000 30.0000
v  2.0000 2.0000 30.0000
v  2.0000 0.0000 10.0000
v  2.0000 2.0000 10.0000
v  -2.0000 0.0000 10.0000
v  -2.0000 2.0000 10.0000
v  -19.6473 2.0000 -2.0000
v  -16.1337 0.0000 -0.0000
v  -19.6474 0.0000 2.0000
v  -15.7810 0.0000 -2.0000
v  -20.0000 0.0000 -0.0000
v  -15.7810 2.0000 2.0000
v  -30.0000 0.0000 -2.0000
v  -30.0000 2.0000 2.0000
v  -30.0000 2.0000 -2.0000
v  -30.0000 0.0000 2.0000
v  -10.0000 0.0000 2.0000
v  -10.0000 0.0000 -2.0000
v  -10.0000 2.0000 -2.0000
v  -10.0000 2.0000 2.0000
v  2.0000 0.0000 -19.6962
v  2.0000 2.0000 -19.6962
v  -2.0000 0.0000 -18.8425
v  -2.0000 0.0000 -18.8023
v  -2.0000 0.0000 -19.6962
v  -2.0000 0.0000 -15.8886
v  -2.0000 2.0000 -15.8886
v  2.0000 0.0000 -15.8886
v  2.0000 0.0000 -16.3750
v  -2.0000 2.0000 -19.6962
v  2.0000 2.0000 -16.5242
v  2.0000 2.0000 -16.3750
v  2.0000 2.0000 -15.8886
v  -2.0000 2.0000 -18.6714
v  -2.0000 2.0000 -18.8023
v  2.0000 0.0000 -16.5242
v  -2.0000 0.0000 -18.6714
v  -2.0000 2.0000 -18.8425
v  -2.0000 0.0000 -30.0000
v  2.0000 0.0000 -30.0000
v  2.0000 2.0000 -30.0000
v  -2.0000 2.0000 -30.0000
v  2.0000 2.0000 -10.0000
v  2.0000 0.0000 -10.0000
v  -2.0000 0.0000 -10.0000
v  -2.0000 2.0000 -10.0000
# 155 vertices

vn 0.9397 0.0000 -0.3420
vn 0.7660 0.0000 -0.6428
vn 0.9397 -0.0000 -0.3420
vn 0.5000 0.0000 -0.8660
vn 0.1736 0.0000 -0.9848
vn 0.1736 -0.0000 -0.9848
vn -0.1736 0.0000 -0.9848
vn -0.5000 0.0000 -0.8660
vn -0.1736 -0.0000 -0.9848
vn -0.7660 0.0000 -0.6428
vn -0.9397 0.0000 -0.3420
vn -0.9397 0.0000 0.3420
vn -0.7660 0.0000 0.6428
vn -0.9397 -0.0000 0.3420
vn -0.5000 0.0000 0.8660
vn -0.1736 0.0000 0.9848
vn -0.1736 -0.0000 0.9848
vn 0.1736 0.0000 0.9848
vn 0.5000 0.0000 0.8660
vn 0.7660 0.0000 0.6428
vn 0.9397 0.0000 0.3420
vn -0.7660 -0.0000 -0.6428
vn -0.9397 -0.0000 -0.3420
vn -0.0000 1.0000 -0.0000
vn 0.0000 1.0000 -0.0000
vn 0.0000 1.0000 0.0000
vn -0.0000 1.0000 0.0000
vn 0.0000 -1.0000 -0.0000
vn -0.0000 -1.0000 -0.0000
vn 0.0000 -1.0000 0.0000
vn -0.0000 -1.0000 0.0000
vn 0.9848 0.0000 0.1736
vn -0.9848 -0.0000 0.1736
vn 0.9848 -0.0000 -0.1736
vn -0.9848 0.0000 -0.1736
vn 0.0000 0.0000 1.0000
vn 1.0000 0.0000 -0.0000
vn 0.0000 0.0000 -1.0000
vn -1.0000 0.0000 -0.0000
vn -0.0000 0.0000 -1.0000
vn 0.0000 -0.0000 1.0000
vn -0.0000 -0.0000 1.0000
vn 1.0000 -0.0000 0.0000
vn 1.0000 0.0000 0.0000
vn -1.0000 -0.0000 -0.0000
vn 0.0000 -0.0000 -1.0000
vn -0.0000 -0.0000 -1.0000
# 47 vertex normals

vt 0.8056 0.0000 1.0000
vt 0.8611 0.0000 1.0000
vt 0.8611 1.0000 1.0000
vt 0.8056 1.0000 1.0000
vt 0.9167 0.0000 1.0000
vt 0.9167 1.0000 1.0000
vt 0.9722 0.0000 1.0000
vt 0.9722 1.0000 1.0000
vt 0.0278 0.0000 1.0000
vt 0.0833 0.0000 1.0000
vt 0.0833 1.0000 1.0000
vt 0.0278 1.0000 1.0000
vt 0.1389 0.0000 1.0000
vt 0.1389 1.0000 1.0000
vt 0.1944 0.0000 1.0000
vt 0.1944 1.0000 1.0000
vt 0.3056 0.0000 1.0000
vt 0.3611 0.0000 1.0000
vt 0.3611 1.0000 1.0000
vt 0.3056 1.0000 1.0000
vt 0.4167 0.0000 1.0000
vt 0.4167 1.0000 1.0000
vt 0.4722 0.0000 1.0000
vt 0.4722 1.0000 1.0000
vt 0.5278 0.0000 1.0000
vt 0.5833 0.0000 1.0000
vt 0.5833 1.0000 1.0000
vt 0.5278 1.0000 1.0000
vt 0.6389 0.0000 1.0000
vt 0.6389 1.0000 1.0000
vt 0.6944 0.0000 1.0000
vt 0.6944 1.0000 1.0000
vt 0.6389 0.4150 1.0000
vt 0.6389 0.5529 1.0000
vt 0.6944 0.5529 1.0000
vt 0.6944 0.4150 1.0000
vt 0.8611 0.4150 1.0000
vt 0.8056 0.4150 1.0000
vt 0.8056 0.5529 1.0000
vt 0.8611 0.5529 1.0000
vt 0.9167 0.4150 1.0000
vt 0.9167 0.5529 1.0000
vt 0.9722 0.4150 1.0000
vt 0.9722 0.5529 1.0000
vt 0.0833 0.4150 1.0000
vt 0.0278 0.4150 1.0000
vt 0.0278 0.5529 1.0000
vt 0.0833 0.5529 1.0000
vt 0.1389 0.4150 1.0000
vt 0.1389 0.5529 1.0000
vt 0.1944 0.4150 1.0000
vt 0.1944 0.5529 1.0000
vt 0.3611 0.4150 1.0000
vt 0.3056 0.4150 1.0000
vt 0.3056 0.5529 1.0000
vt 0.3611 0.5529 1.0000
vt 0.4167 0.4150 1.0000
vt 0.4167 0.5529 1.0000
vt 0.4722 0.4150 1.0000
vt 0.4722 0.5529 1.0000
vt 0.5833 0.4150 1.0000
vt 0.5278 0.4150 1.0000
vt 0.5278 0.5529 1.0000
vt 0.5833 0.5529 1.0000
vt 0.7593 0.8090 0.2500
vt 0.8493 0.7017 0.2500
vt 0.8214 0.8830 0.2500
vt 0.8972 0.5700 0.2500
vt 0.9330 0.7500 0.2500
vt 0.7593 0.1910 0.2500
vt 0.9330 0.2500 0.2500
vt 0.9924 0.4132 0.2500
vt 0.8493 0.2983 0.2500
vt 0.6380 0.1210 0.2500
vt 0.8214 0.1170 0.2500
vt 0.4500 0.1055 0.2500
vt 0.4500 0.0438 0.2500
vt 0.5000 0.0000 0.2500
vt 0.5500 0.0088 0.2500
vt 0.5000 0.0967 0.2500
vt 0.5500 0.0772 0.2500
vt 0.1507 0.2983 0.2500
vt 0.1786 0.1170 0.2500
vt 0.3290 0.0302 0.2500
vt 0.2407 0.1910 0.2500
vt 0.1028 0.4300 0.2500
vt 0.0670 0.2500 0.2500
vt 0.2407 0.8090 0.2500
vt 0.0670 0.7500 0.2500
vt 0.0076 0.5868 0.2500
vt 0.1507 0.7017 0.2500
vt 0.3620 0.8790 0.2500
vt 0.3290 0.9698 0.2500
vt 0.1786 0.8830 0.2500
vt 0.3620 0.8790 -0.2500
vt 0.2407 0.8090 -0.2500
vt 0.0670 0.7500 -0.2500
vt 0.1786 0.8830 -0.2500
vt 0.1507 0.7017 -0.2500
vt 0.0076 0.5868 -0.2500
vt 0.1028 0.4300 -0.2500
vt 0.1507 0.2983 -0.2500
vt 0.1786 0.1170 -0.2500
vt 0.0670 0.2500 -0.2500
vt 0.2407 0.1910 -0.2500
vt 0.3290 0.0302 -0.2500
vt 0.3620 0.1210 -0.2500
vt 0.4500 0.0438 -0.2500
vt 0.4500 0.0088 -0.2500
vt 0.5500 0.1055 -0.2500
vt 0.6380 0.1210 -0.2500
vt 0.8214 0.1170 -0.2500
vt 0.6710 0.0302 -0.2500
vt 0.5500 0.0772 -0.2500
vt 0.7593 0.1910 -0.2500
vt 0.9330 0.2500 -0.2500
vt 0.8493 0.2983 -0.2500
vt 0.9924 0.4132 -0.2500
vt 0.8972 0.5700 -0.2500
vt 0.8493 0.7017 -0.2500
vt 0.8214 0.8830 -0.2500
vt 0.9330 0.7500 -0.2500
vt 0.7593 0.8090 -0.2500
vt 0.6380 0.8790 -0.2500
vt 0.4500 0.8945 -0.2500
vt 0.4500 0.9912 -0.2500
vt 0.3290 0.9698 -0.2500
vt 0.7338 0.0000 1.0000
vt 0.7338 1.0000 1.0000
vt 0.7701 0.4150 1.0000
vt 0.7701 0.5529 1.0000
vt 0.7662 0.0000 1.0000
vt 0.7662 1.0000 1.0000
vt 0.4500 0.9228 0.2500
vt 0.4500 0.9912 0.2500
vt 0.5500 0.8945 0.2500
vt 0.6380 0.8790 0.2500
vt 0.5500 0.9912 0.2500
vt 0.6710 0.9698 0.2500
vt 0.7299 0.4150 1.0000
vt 0.7299 0.5529 1.0000
vt 0.4500 0.8945 0.2500
vt 0.5000 0.9033 -0.2500
vt 0.5000 1.0000 -0.2500
vt 0.5500 0.9912 -0.2500
vt 0.5500 0.8945 -0.2500
vt 0.5000 0.9033 0.2500
vt 0.5000 1.0000 0.2500
vt 0.0000 0.0000 0.0000
vt 0.5176 0.0000 0.0000
vt 0.5000 0.5000 0.0000
vt 1.0000 0.0000 0.0000
vt 1.0000 1.0000 0.0000
vt 0.4824 1.0000 0.0000
vt 0.4824 0.0000 0.0000
vt 0.0000 1.0000 0.0000
vt 0.7109 1.0000 0.0000
vt 0.7109 0.0000 0.0000
vt 0.6933 0.5000 0.0000
vt 0.5176 1.0000 0.0000
vt 0.3067 0.5000 0.0000
vt 0.2891 1.0000 0.0000
vt 0.2891 0.0000 0.0000
vt 0.6710 0.9698 -0.2500
vt 0.4840 0.0000 1.0000
vt 0.4840 1.0000 1.0000
vt 0.9924 0.5868 -0.2500
vt 0.9924 0.5500 -0.2500
vt 0.9701 0.5500 -0.2500
vt 0.5198 0.4150 1.0000
vt 0.5198 0.5529 1.0000
vt 0.8972 0.4300 -0.2500
vt 0.8972 0.4500 -0.2500
vt 0.9094 0.4500 -0.2500
vt 0.5160 0.0000 1.0000
vt 0.5160 1.0000 1.0000
vt 0.9924 0.5868 0.2500
vt 0.9701 0.5500 0.2500
vt 0.9924 0.5500 0.2500
vt 0.9924 0.4500 0.2500
vt 0.9094 0.4500 0.2500
vt 0.8972 0.4300 0.2500
vt 0.4802 0.4150 1.0000
vt 0.4802 0.5529 1.0000
vt 0.8972 0.4500 0.2500
vt 0.8972 0.5500 0.2500
vt 0.8972 0.5500 -0.2500
vt 0.9924 0.4500 -0.2500
vt 0.4848 1.0000 0.0000
vt 0.4848 0.0000 0.0000
vt 0.5152 0.0000 0.0000
vt 0.5152 1.0000 0.0000
vt 0.7056 1.0000 0.0000
vt 0.7056 0.0000 0.0000
vt 0.2944 0.0000 0.0000
vt 0.2944 1.0000 0.0000
vt 0.2338 0.0000 1.0000
vt 0.2338 1.0000 1.0000
vt 0.5000 0.0967 -0.2500
vt 0.5500 0.0088 -0.2500
vt 0.4500 0.1055 -0.2500
vt 0.5000 0.0000 -0.2500
vt 0.2701 0.4150 1.0000
vt 0.2701 0.5529 1.0000
vt 0.4500 0.0088 0.2500
vt 0.3620 0.1210 0.2500
vt 0.2662 0.0000 1.0000
vt 0.2662 1.0000 1.0000
vt 0.6710 0.0302 0.2500
vt 0.2299 0.4150 1.0000
vt 0.2299 0.5529 1.0000
vt 0.5500 0.1055 0.2500
vt 0.9840 0.0000 1.0000
vt 0.9840 1.0000 1.0000
vt 0.0289 0.4500 -0.2500
vt 0.0299 0.4500 -0.2500
vt 0.0076 0.4132 -0.2500
vt 0.0076 0.4500 -0.2500
vt 1.0198 0.4150 1.0000
vt 1.0198 0.5529 1.0000
vt 1.0278 0.5529 1.0000
vt 1.0278 0.4150 1.0000
vt 0.1028 0.5700 -0.2500
vt 0.1028 0.5500 -0.2500
vt 0.0906 0.5500 -0.2500
vt 1.0160 0.0000 1.0000
vt 1.0278 0.0000 1.0000
vt 1.0278 1.0000 1.0000
vt 1.0160 1.0000 1.0000
vt 0.0869 0.5500 0.2500
vt 0.0906 0.5500 0.2500
vt 0.1028 0.5700 0.2500
vt 0.0076 0.5500 0.2500
vt 0.9802 0.4150 1.0000
vt 0.9802 0.5529 1.0000
vt 0.1028 0.5500 0.2500
vt 0.0332 0.4500 0.2500
vt 0.0299 0.4500 0.2500
vt 0.0076 0.4132 0.2500
vt 0.1028 0.4500 0.2500
vt 0.0076 0.5500 -0.2500
vt 0.0869 0.5500 -0.2500
vt 0.1028 0.4500 -0.2500
vt 0.0332 0.4500 -0.2500
vt 0.0076 0.4500 0.2500
vt 0.0289 0.4500 0.2500
# 246 texture coords

g Cylinder002
usemtl 01___Default
s 8
f 1/1/1 2/2/2 3/3/2 
f 3/3/2 4/4/3 1/1/1 
f 2/2/2 5/5/4 6/6/4 
f 6/6/4 3/3/2 2/2/2 
f 5/5/4 7/7/5 8/8/6 
f 8/8/6 6/6/4 5/5/4 
f 9/9/7 10/10/8 11/11/8 
f 11/11/8 12/12/9 9/9/7 
f 10/10/8 13/13/10 14/14/10 
f 14/14/10 11/11/8 10/10/8 
f 13/13/10 15/15/11 16/16/11 
f 16/16/11 14/14/10 13/13/10 
f 17/17/12 18/18/13 19/19/13 
f 19/19/13 20/20/14 17/17/12 
f 18/18/13 21/21/15 22/22/15 
f 22/22/15 19/19/13 18/18/13 
f 21/21/15 23/23/16 24/24/17 
f 24/24/17 22/22/15 21/21/15 
f 25/25/18 26/26/19 27/27/19 
f 27/27/19 28/28/18 25/25/18 
f 26/26/19 29/29/20 30/30/20 
f 30/30/20 27/27/19 26/26/19 
f 29/29/20 31/31/21 32/32/21 
f 32/32/21 30/30/20 29/29/20 
f 33/33/22 34/34/22 35/35/23 
f 35/35/23 36/36/23 33/33/22 
f 37/37/13 38/38/12 39/39/14 
f 39/39/14 40/40/13 37/37/13 
f 41/41/15 37/37/13 40/40/13 
f 40/40/13 42/42/15 41/41/15 
f 43/43/16 41/41/15 42/42/15 
f 42/42/15 44/44/16 43/43/16 
f 45/45/19 46/46/18 47/47/18 
f 47/47/18 48/48/19 45/45/19 
f 49/49/20 45/45/19 48/48/19 
f 48/48/19 50/50/20 49/49/20 
f 51/51/21 49/49/20 50/50/20 
f 50/50/20 52/52/21 51/51/21 
f 53/53/2 54/54/1 55/55/3 
f 55/55/3 56/56/2 53/53/2 
f 57/57/4 53/53/2 56/56/2 
f 56/56/2 58/58/4 57/57/4 
f 59/59/5 57/57/4 58/58/4 
f 58/58/4 60/60/5 59/59/5 
f 61/61/8 62/62/7 63/63/7 
f 63/63/7 64/64/8 61/61/8 
f 33/33/22 61/61/8 64/64/8 
f 64/64/8 34/34/22 33/33/22 
s 1
f 34/65/24 64/66/24 30/67/24 
f 63/68/25 27/69/24 30/67/24 
f 30/67/24 64/66/24 63/68/25 
f 56/70/25 22/71/25 24/72/25 
f 24/72/25 58/73/25 56/70/25 
f 55/74/25 19/75/25 22/71/25 
f 22/71/25 56/70/25 55/74/25 
f 65/76/25 66/77/25 67/78/25 
f 65/76/25 67/78/25 68/79/26 
f 69/80/27 65/76/25 68/79/26 
f 69/80/27 68/79/26 70/81/27 
f 48/82/26 14/83/26 16/84/26 
f 16/84/26 50/85/26 48/82/26 
f 47/86/27 11/87/26 14/83/26 
f 14/83/26 48/82/26 47/86/27 
f 40/88/27 6/89/27 8/90/27 
f 8/90/27 42/91/27 40/88/27 
f 39/92/24 4/93/27 3/94/27 
f 39/92/24 3/94/27 6/89/27 
f 40/88/27 39/92/24 6/89/27 
f 38/95/28 37/96/28 5/97/28 
f 5/97/28 2/98/29 38/95/28 
f 37/96/28 41/99/28 7/100/28 
f 7/100/28 5/97/28 37/96/28 
f 46/101/28 45/102/28 13/103/28 
f 13/103/28 10/104/28 46/101/28 
f 45/102/28 49/105/28 15/106/28 
f 15/106/28 13/103/28 45/102/28 
f 51/107/28 71/108/28 72/109/28 
f 49/105/28 51/107/28 72/109/28 
f 49/105/28 72/109/28 15/106/28 
f 73/110/30 54/111/28 18/112/28 
f 73/110/30 18/112/28 17/113/31 
f 73/110/30 17/113/31 74/114/28 
f 54/111/28 53/115/28 21/116/28 
f 21/116/28 18/112/28 54/111/28 
f 53/115/28 57/117/30 23/118/28 
f 23/118/28 21/116/28 53/115/28 
f 62/119/28 61/120/28 29/121/28 
f 29/121/28 26/122/30 62/119/28 
f 61/120/28 33/123/28 29/121/28 
f 33/123/28 36/124/28 29/121/28 
f 75/125/31 38/95/28 2/98/29 
f 76/126/31 75/125/31 2/98/29 
f 1/127/28 76/126/31 2/98/29 
s 8
f 77/128/32 78/129/32 32/32/21 
f 32/32/21 31/31/21 77/128/32 
f 75/130/33 79/131/33 39/39/14 
f 39/39/14 38/38/12 75/130/33 
f 76/132/34 1/1/1 4/4/3 
f 4/4/3 80/133/34 76/132/34 
s 1
f 4/93/27 81/134/25 80/135/24 
f 82/136/27 35/137/24 30/67/24 
f 78/138/24 82/136/27 30/67/24 
f 32/139/25 78/138/24 30/67/24 
s 8
f 83/140/35 36/36/23 35/35/23 
f 35/35/23 82/141/35 83/140/35 
s 1
f 79/142/26 81/134/25 4/93/27 
f 4/93/27 39/92/24 79/142/26 
f 84/143/31 85/144/31 77/145/31 
f 77/145/31 83/146/28 84/143/31 
f 80/135/24 81/134/25 86/147/26 
f 87/148/27 80/135/24 86/147/26 
f 87/148/27 86/147/26 82/136/27 
f 78/138/24 87/148/27 82/136/27 
f 79/142/26 86/147/26 81/134/25 
f 76/126/31 85/144/31 84/143/31 
f 84/143/31 75/125/31 76/126/31 
s 2
f 88/149/31 77/150/31 85/151/31 
s 4
f 87/151/25 89/152/25 90/153/25 
f 90/153/25 80/154/25 87/151/25 
s 32
f 88/152/36 89/153/36 78/154/36 
f 78/154/36 77/155/36 88/152/36 
s 16
f 88/149/37 91/152/37 90/153/37 
f 90/153/37 89/156/37 88/149/37 
s 32
f 92/152/38 93/153/38 79/157/38 
f 79/157/38 75/158/38 92/152/38 
s 64
f 92/149/39 94/152/39 95/153/39 
f 95/153/39 93/156/39 92/149/39 
s 2
f 92/153/30 75/157/30 84/159/30 
f 94/152/30 92/153/30 84/159/30 
f 83/158/30 94/152/30 84/159/30 
s 32
f 90/156/40 91/149/38 76/150/40 
f 76/150/40 80/160/40 90/156/40 
s 4
f 86/161/26 79/162/25 93/156/25 
f 86/161/26 93/156/25 95/149/26 
f 86/161/26 95/149/26 82/163/26 
s 16
f 83/163/41 82/162/42 95/156/41 
f 95/156/41 94/149/36 83/163/41 
s 1
f 77/145/31 31/164/29 29/121/28 
f 83/146/28 77/145/31 29/121/28 
f 36/124/28 83/146/28 29/121/28 
f 35/137/24 34/65/24 30/67/24 
s 2
f 91/156/30 88/149/31 85/151/31 
f 85/151/31 76/160/30 91/156/30 
s 4
f 87/151/25 78/155/25 89/152/25 
s 8
f 96/165/42 97/166/42 24/24/17 
f 24/24/17 23/23/16 96/165/42 
s 1
f 25/167/28 98/168/28 99/169/28 
s 8
f 100/170/38 101/171/38 63/63/7 
f 63/63/7 62/62/7 100/170/38 
s 1
f 59/172/31 102/173/31 103/174/31 
s 8
f 98/175/36 25/25/18 28/28/18 
f 28/28/18 104/176/36 98/175/36 
s 1
f 28/177/25 105/178/25 104/179/25 
f 97/180/24 106/181/24 60/182/24 
f 97/180/24 60/182/24 58/73/25 
f 24/72/25 97/180/24 58/73/25 
s 8
f 102/183/38 59/59/5 60/60/5 
f 60/60/5 107/184/38 102/183/38 
s 1
f 60/182/24 106/181/24 107/185/24 
f 101/186/25 105/178/25 28/177/25 
f 101/186/25 28/177/25 27/69/24 
f 63/68/25 101/186/25 27/69/24 
f 100/187/28 62/119/28 26/122/30 
f 100/187/28 26/122/30 25/167/28 
f 100/187/28 25/167/28 99/169/28 
f 98/168/28 96/188/31 103/174/31 
f 103/174/31 99/169/28 98/168/28 
f 106/181/24 97/180/24 104/179/25 
f 104/179/25 105/178/25 106/181/24 
f 96/188/31 23/118/28 57/117/30 
f 96/188/31 57/117/30 59/172/31 
f 96/188/31 59/172/31 103/174/31 
f 105/178/25 101/186/25 107/185/24 
f 107/185/24 106/181/24 105/178/25 
f 102/173/31 100/187/28 99/169/28 
f 99/169/28 103/174/31 102/173/31 
s 2
f 108/153/31 96/189/29 98/190/29 
f 98/190/29 109/152/30 108/153/31 
s 4
f 104/191/25 97/192/25 110/156/25 
f 110/156/25 111/149/25 104/191/25 
s 32
f 112/152/43 113/153/44 101/193/43 
f 101/193/43 100/194/43 112/152/43 
s 16
f 112/149/38 114/152/38 115/153/38 
f 115/153/38 113/156/38 112/149/38 
s 32
f 102/195/39 107/196/39 115/156/39 
f 115/156/39 114/149/39 102/195/39 
s 64
f 108/149/36 109/152/36 111/153/36 
f 111/153/36 110/156/36 108/149/36 
s 32
f 96/190/45 108/152/39 110/153/45 
f 110/153/45 97/189/45 96/190/45 
s 16
f 111/156/44 109/149/44 98/191/44 
f 98/191/44 104/192/44 111/156/44 
s 4
f 113/152/25 115/153/25 107/193/25 
f 107/193/25 101/194/25 113/152/25 
s 2
f 114/156/28 112/149/28 100/195/28 
f 100/195/28 102/196/28 114/156/28 
s 8
f 72/197/35 116/198/35 16/16/11 
f 16/16/11 15/15/11 72/197/35 
s 1
f 117/199/28 74/114/28 118/200/29 
f 119/201/28 117/199/28 118/200/29 
f 119/201/28 118/200/29 120/202/28 
f 119/201/28 120/202/28 71/108/28 
s 8
f 73/203/34 121/204/34 55/55/3 
f 55/55/3 54/54/1 73/203/34 
s 1
f 116/205/25 66/77/25 52/206/26 
f 116/205/25 52/206/26 50/85/26 
f 16/84/26 116/205/25 50/85/26 
s 8
f 118/207/33 17/17/12 20/20/14 
f 20/20/14 68/208/33 118/207/33 
s 1
f 20/209/25 70/81/27 68/79/26 
s 8
f 119/210/32 51/51/21 52/52/21 
f 52/52/21 65/211/32 119/210/32 
s 1
f 52/206/26 66/77/25 65/76/25 
f 121/212/24 70/81/27 20/209/25 
f 121/212/24 20/209/25 19/75/25 
f 55/74/25 121/212/24 19/75/25 
f 121/212/24 69/80/27 70/81/27 
f 74/114/28 17/113/31 118/200/29 
f 74/114/28 117/199/28 73/110/30 
f 116/205/25 67/78/25 66/77/25 
f 71/108/28 51/107/28 119/201/28 
f 71/108/28 120/202/28 72/109/28 
s 2
f 122/153/28 72/154/28 120/151/28 
s 4
f 123/149/25 68/150/25 67/151/25 
f 67/151/25 124/156/25 123/149/25 
s 16
f 118/150/41 68/160/41 123/156/41 
f 123/156/41 125/149/36 118/150/41 
f 126/149/37 127/152/37 128/153/37 
f 128/153/37 129/156/37 126/149/37 
s 32
f 119/163/40 65/162/40 128/156/40 
f 128/156/40 127/149/40 119/163/40 
s 64
f 122/149/39 125/152/39 123/153/39 
f 123/153/39 124/156/39 122/149/39 
s 32
f 72/155/38 122/152/38 124/153/38 
f 124/153/38 116/154/38 72/155/38 
s 4
f 69/159/25 121/158/25 129/152/25 
f 69/159/25 129/152/25 128/153/25 
f 69/159/25 128/153/25 65/157/25 
s 2
f 126/149/28 73/163/28 117/161/28 
f 127/156/28 126/149/28 117/161/28 
f 119/162/28 127/156/28 117/161/28 
s 32
f 126/152/36 129/153/36 121/157/36 
f 121/157/36 73/158/36 126/152/36 
s 2
f 125/152/28 122/153/28 120/151/28 
f 120/151/28 118/155/28 125/152/28 
s 4
f 67/151/25 116/160/25 124/156/25 
s 8
f 130/213/46 131/214/46 8/8/6 
f 8/8/6 7/7/5 130/213/46 
s 1
f 132/215/28 133/216/28 9/217/28 
f 9/217/28 134/218/28 132/215/28 
s 8
f 135/219/36 136/220/36 47/221/18 
f 47/221/18 46/222/18 135/219/36 
s 1
f 43/223/28 137/224/30 138/225/28 
s 8
f 134/226/47 9/227/7 12/228/9 
f 12/228/9 139/229/47 134/226/47 
s 1
f 140/230/27 141/231/25 44/232/25 
f 131/233/27 140/230/27 44/232/25 
f 131/233/27 44/232/25 42/91/27 
f 8/90/27 131/233/27 42/91/27 
s 8
f 137/234/36 43/43/16 44/44/16 
f 44/44/16 142/235/36 137/234/36 
s 1
f 44/232/25 141/231/25 142/236/25 
f 143/237/25 144/238/25 12/239/25 
f 136/240/27 143/237/25 12/239/25 
f 136/240/27 12/239/25 11/87/26 
f 47/86/27 136/240/27 11/87/26 
f 130/241/29 7/100/28 41/99/28 
f 130/241/29 41/99/28 43/223/28 
f 145/242/29 130/241/29 43/223/28 
f 145/242/29 43/223/28 138/225/28 
f 137/224/30 135/243/31 146/244/28 
f 146/244/28 133/216/28 138/225/28 
f 137/224/30 146/244/28 138/225/28 
f 140/230/27 131/233/27 139/245/26 
f 140/230/27 139/245/26 147/246/25 
f 147/246/25 144/238/25 141/231/25 
f 140/230/27 147/246/25 141/231/25 
f 135/243/31 46/101/28 10/104/28 
f 135/243/31 10/104/28 9/217/28 
f 146/244/28 135/243/31 9/217/28 
f 146/244/28 9/217/28 133/216/28 
f 147/246/25 139/245/26 12/239/25 
f 12/239/25 144/238/25 147/246/25 
f 134/218/28 130/241/29 145/242/29 
f 132/215/28 134/218/28 145/242/29 
f 132/215/28 145/242/29 138/225/28 
f 132/215/28 138/225/28 133/216/28 
f 143/237/25 136/240/27 142/236/25 
f 143/237/25 142/236/25 141/231/25 
f 143/237/25 141/231/25 144/238/25 
s 2
f 148/156/31 149/149/28 130/191/31 
f 130/191/31 134/192/31 148/156/31 
s 4
f 150/152/25 151/153/25 139/189/25 
f 139/189/25 131/190/25 150/152/25 
s 16
f 137/195/43 142/196/43 152/156/43 
f 152/156/43 153/149/44 137/195/43 
f 149/149/38 148/152/38 151/153/38 
f 151/153/38 150/156/38 149/149/38 
s 32
f 154/152/39 155/153/39 136/193/39 
f 136/193/39 135/194/39 154/152/39 
s 64
f 154/149/36 153/152/36 152/153/36 
f 152/153/36 155/156/36 154/149/36 
s 32
f 130/190/44 149/152/44 150/153/44 
f 150/153/44 131/189/44 130/190/44 
f 151/156/45 148/149/39 134/191/45 
f 134/191/45 139/192/45 151/156/45 
s 2
f 153/152/28 154/153/28 135/193/28 
f 135/193/28 137/194/28 153/152/28 
s 4
f 155/156/25 152/149/25 142/195/25 
f 142/195/25 136/196/25 155/156/25 
# 310 faces

