# 3ds Max Wavefront OBJ Exporter v0.97b - (c)2007 guruware
# File Created: 31.10.2012 10:49:30

mtllib uibar.mtl

#
# object Box001
#

v  -257.2975 68.5410 60.4323
v  -145.9225 68.5244 60.4323
v  -145.9225 68.5410 60.4323
v  -257.2975 68.5244 60.4323
v  -145.9225 68.5077 60.4323
v  -257.2975 68.5077 60.4323
v  -145.9225 68.4910 60.4323
v  -257.2975 68.4910 60.4323
v  -145.9225 68.4744 60.4323
v  -34.5476 68.5244 60.4323
v  -34.5476 68.5410 60.4323
v  -34.5476 68.5077 60.4323
v  -34.5476 68.4910 60.4323
v  -34.5476 68.4744 60.4323
v  76.8274 68.5244 60.4323
v  76.8274 68.5410 60.4323
v  76.8274 68.5077 60.4323
v  76.8274 68.4910 60.4323
v  76.8275 68.4744 60.4323
v  188.2025 68.5244 60.4323
v  188.2025 68.5410 60.4323
v  188.2025 68.5077 60.4323
v  188.2025 68.4910 60.4323
v  188.2025 68.4744 60.4323
v  -368.6726 68.5577 60.4323
v  -257.2976 68.5577 60.4323
v  -257.2976 68.4577 60.4323
v  -368.6726 68.4744 60.4323
v  -368.6726 68.4577 60.4323
v  299.5774 68.4577 60.4323
v  188.2025 68.4577 60.4323
v  188.2024 68.5577 60.4323
v  299.5774 68.5410 60.4323
v  299.5774 68.5577 60.4323
v  -368.6726 68.5410 60.4323
v  -145.9225 68.4577 60.4323
v  -257.2976 68.4744 60.4323
v  299.5774 68.4744 60.4323
v  76.8274 68.5577 60.4323
v  -368.6725 68.5244 60.4323
v  -34.5476 68.4577 60.4323
v  299.5774 68.4910 60.4323
v  -34.5476 68.5577 60.4323
v  -368.6726 68.5077 60.4323
v  76.8274 68.4577 60.4323
v  299.5774 68.5077 60.4323
v  -145.9226 68.5577 60.4323
v  -368.6726 68.4910 60.4323
v  299.5774 68.5244 60.4323
v  299.5774 68.5410 33.0989
v  299.5774 68.5244 5.7656
v  299.5774 68.5410 5.7656
v  299.5774 68.5244 33.0989
v  299.5774 68.5077 5.7656
v  299.5774 68.5077 33.0989
v  299.5774 68.4910 5.7656
v  299.5774 68.4910 33.0989
v  299.5774 68.4744 5.7656
v  299.5774 68.5244 -21.5677
v  299.5774 68.5410 -21.5677
v  299.5774 68.5077 -21.5677
v  299.5774 68.4910 -21.5677
v  299.5775 68.4744 -21.5677
v  299.5774 68.5244 -48.9011
v  299.5774 68.5410 -48.9011
v  299.5774 68.5077 -48.9011
v  299.5774 68.4910 -48.9011
v  299.5775 68.4744 -48.9011
v  299.5774 68.5244 -76.2344
v  299.5774 68.5410 -76.2344
v  299.5775 68.5077 -76.2344
v  299.5775 68.4910 -76.2344
v  299.5775 68.4744 -76.2344
v  299.5774 68.5577 33.0989
v  299.5774 68.4577 33.0989
v  299.5774 68.4577 -103.5677
v  299.5774 68.4577 -76.2344
v  299.5774 68.5577 -76.2344
v  299.5774 68.5410 -103.5677
v  299.5774 68.5577 -103.5677
v  299.5774 68.4577 5.7656
v  299.5774 68.4744 33.0989
v  299.5774 68.4744 -103.5677
v  299.5774 68.5577 -48.9011
v  299.5774 68.4577 -21.5677
v  299.5774 68.4910 -103.5677
v  299.5774 68.5577 -21.5677
v  299.5774 68.4577 -48.9011
v  299.5774 68.5077 -103.5677
v  299.5774 68.5577 5.7656
v  299.5774 68.5244 -103.5677
v  188.2024 68.5410 -103.5677
v  76.8274 68.5244 -103.5677
v  76.8274 68.5410 -103.5677
v  188.2024 68.5244 -103.5677
v  76.8274 68.5077 -103.5677
v  188.2024 68.5077 -103.5677
v  76.8274 68.4910 -103.5677
v  188.2024 68.4910 -103.5677
v  76.8274 68.4744 -103.5677
v  -34.5476 68.5244 -103.5677
v  -34.5476 68.5410 -103.5677
v  -34.5476 68.5077 -103.5677
v  -34.5476 68.4910 -103.5677
v  -34.5476 68.4744 -103.5677
v  -145.9226 68.5244 -103.5677
v  -145.9226 68.5410 -103.5677
v  -145.9226 68.5077 -103.5677
v  -145.9226 68.4910 -103.5677
v  -145.9226 68.4744 -103.5677
v  -257.2976 68.5244 -103.5677
v  -257.2976 68.5410 -103.5677
v  -257.2976 68.5077 -103.5677
v  -257.2976 68.4910 -103.5677
v  -257.2976 68.4744 -103.5677
v  188.2025 68.5577 -103.5677
v  188.2024 68.4577 -103.5677
v  -368.6726 68.4577 -103.5677
v  -257.2976 68.4577 -103.5677
v  -257.2976 68.5577 -103.5677
v  -368.6726 68.5410 -103.5677
v  -368.6726 68.5577 -103.5677
v  76.8274 68.4577 -103.5677
v  188.2024 68.4744 -103.5677
v  -368.6726 68.4744 -103.5677
v  -145.9225 68.5577 -103.5677
v  -34.5476 68.4577 -103.5677
v  -368.6725 68.4910 -103.5677
v  -34.5476 68.5577 -103.5677
v  -145.9226 68.4577 -103.5677
v  -368.6726 68.5077 -103.5677
v  76.8274 68.5577 -103.5677
v  -368.6726 68.5244 -103.5677
v  -368.6725 68.5410 -76.2344
v  -368.6725 68.5244 -48.9011
v  -368.6725 68.5410 -48.9011
v  -368.6725 68.5244 -76.2344
v  -368.6725 68.5077 -48.9011
v  -368.6725 68.5077 -76.2344
v  -368.6725 68.4910 -48.9011
v  -368.6725 68.4910 -76.2344
v  -368.6726 68.4744 -48.9011
v  -368.6725 68.5244 -21.5677
v  -368.6725 68.5410 -21.5677
v  -368.6726 68.5077 -21.5677
v  -368.6726 68.4910 -21.5677
v  -368.6726 68.4744 -21.5677
v  -368.6725 68.5244 5.7656
v  -368.6725 68.5410 5.7656
v  -368.6726 68.5077 5.7656
v  -368.6726 68.4910 5.7656
v  -368.6726 68.4744 5.7656
v  -368.6726 68.5244 33.0989
v  -368.6726 68.5410 33.0989
v  -368.6726 68.5077 33.0989
v  -368.6726 68.4910 33.0989
v  -368.6726 68.4744 33.0989
v  -368.6726 68.5577 -76.2344
v  -368.6726 68.4577 -76.2344
v  -368.6726 68.4577 33.0989
v  -368.6726 68.5577 33.0989
v  -368.6725 68.4577 -48.9011
v  -368.6726 68.4744 -76.2344
v  -368.6725 68.5577 5.7656
v  -368.6726 68.4577 -21.5677
v  -368.6726 68.5577 -21.5677
v  -368.6726 68.4577 5.7656
v  -368.6726 68.5577 -48.9011
v  -257.2975 68.4577 33.0989
v  -145.9225 68.4577 5.7656
v  -145.9225 68.4577 33.0989
v  -257.2975 68.4577 5.7656
v  -145.9225 68.4577 -21.5677
v  -257.2975 68.4577 -21.5677
v  -145.9225 68.4577 -48.9011
v  -257.2975 68.4577 -48.9011
v  -145.9225 68.4577 -76.2344
v  -34.5476 68.4577 5.7656
v  -34.5476 68.4577 33.0989
v  -34.5476 68.4577 -21.5677
v  -34.5476 68.4577 -48.9011
v  -34.5476 68.4577 -76.2344
v  76.8274 68.4577 5.7656
v  76.8274 68.4577 33.0989
v  76.8274 68.4577 -21.5677
v  76.8274 68.4577 -48.9011
v  76.8275 68.4577 -76.2344
v  188.2025 68.4577 5.7656
v  188.2025 68.4577 33.0989
v  188.2025 68.4577 -21.5677
v  188.2025 68.4577 -48.9011
v  188.2025 68.4577 -76.2344
v  -257.2976 68.4577 -76.2344
v  -257.2975 68.5577 -76.2344
v  -145.9225 68.5577 -48.9011
v  -145.9225 68.5577 -76.2344
v  -257.2975 68.5577 -48.9011
v  -145.9225 68.5577 -21.5677
v  -257.2975 68.5577 -21.5677
v  -145.9225 68.5577 5.7656
v  -257.2975 68.5577 5.7656
v  -145.9225 68.5577 33.0989
v  -34.5476 68.5577 -48.9011
v  -34.5476 68.5577 -76.2344
v  -34.5476 68.5577 -21.5677
v  -34.5476 68.5577 5.7656
v  -34.5476 68.5577 33.0989
v  76.8274 68.5577 -48.9011
v  76.8274 68.5577 -76.2344
v  76.8274 68.5577 -21.5677
v  76.8274 68.5577 5.7656
v  76.8275 68.5577 33.0989
v  188.2025 68.5577 -48.9011
v  188.2025 68.5577 -76.2344
v  188.2025 68.5577 -21.5677
v  188.2025 68.5577 5.7656
v  188.2025 68.5577 33.0989
v  -257.2976 68.5577 33.0989
# 218 vertices

vn -0.0000 -0.0002 1.0000
vn -0.0000 0.0002 1.0000
vn -0.0000 -0.0000 1.0000
vn -0.0000 0.0000 1.0000
vn 0.0000 0.0000 1.0000
vn 0.0000 0.0002 1.0000
vn 0.0000 -0.0002 1.0000
vn -0.0000 -0.0009 1.0000
vn 0.0000 -0.0000 1.0000
vn 0.0000 -0.0005 1.0000
vn -0.0000 -0.0005 1.0000
vn 1.0000 -0.0018 -0.0000
vn 1.0000 0.0009 0.0000
vn 1.0000 -0.0018 0.0000
vn 1.0000 0.0009 -0.0000
vn 1.0000 0.0000 0.0000
vn 1.0000 -0.0009 0.0000
vn 1.0000 -0.0000 0.0000
vn 1.0000 -0.0009 -0.0000
vn 1.0000 -0.0000 -0.0000
vn 1.0000 -0.0037 -0.0000
vn 1.0000 0.0000 -0.0000
vn 1.0000 -0.0037 0.0000
vn 0.0000 -0.0002 -1.0000
vn 0.0000 0.0002 -1.0000
vn 0.0000 -0.0000 -1.0000
vn -0.0000 0.0002 -1.0000
vn 0.0000 0.0000 -1.0000
vn -0.0000 -0.0000 -1.0000
vn -0.0000 -0.0002 -1.0000
vn -0.0000 0.0000 -1.0000
vn 0.0000 -0.0009 -1.0000
vn -0.0000 -0.0005 -1.0000
vn 0.0000 -0.0005 -1.0000
vn -1.0000 -0.0018 0.0000
vn -1.0000 0.0009 -0.0000
vn -1.0000 -0.0018 -0.0000
vn -1.0000 0.0009 0.0000
vn -1.0000 0.0000 -0.0000
vn -1.0000 -0.0009 -0.0000
vn -1.0000 -0.0000 -0.0000
vn -1.0000 -0.0009 0.0000
vn -1.0000 -0.0000 0.0000
vn -1.0000 -0.0037 0.0000
vn -1.0000 0.0000 0.0000
vn -1.0000 -0.0037 -0.0000
vn 0.0000 -1.0000 -0.0000
vn 0.0000 1.0000 0.0000
vn -0.0000 1.0000 -0.0000
vn -0.0000 1.0000 0.0000
vn 0.0000 1.0000 -0.0000
# 51 vertex normals

vt 0.1667 0.8333 0.0000
vt 0.3333 0.6667 0.0000
vt 0.3333 0.8333 0.0000
vt 0.1667 0.6667 0.0000
vt 0.3333 0.5000 0.0000
vt 0.1667 0.5000 0.0000
vt 0.3333 0.3333 0.0000
vt 0.1667 0.3333 0.0000
vt 0.3333 0.1667 0.0000
vt 0.5000 0.6667 0.0000
vt 0.5000 0.8333 0.0000
vt 0.5000 0.5000 0.0000
vt 0.5000 0.3333 0.0000
vt 0.5000 0.1667 0.0000
vt 0.6667 0.6667 0.0000
vt 0.6667 0.8333 0.0000
vt 0.6667 0.5000 0.0000
vt 0.6667 0.3333 0.0000
vt 0.6667 0.1667 0.0000
vt 0.8333 0.6667 0.0000
vt 0.8333 0.8333 0.0000
vt 0.8333 0.5000 0.0000
vt 0.8333 0.3333 0.0000
vt 0.8333 0.1667 0.0000
vt 0.0000 1.0000 0.0000
vt 0.1667 1.0000 0.0000
vt 0.1667 0.0000 0.0000
vt 0.0000 0.1667 0.0000
vt 0.0000 0.0000 0.0000
vt 1.0000 0.0000 0.0000
vt 0.8333 0.0000 0.0000
vt 0.8333 1.0000 0.0000
vt 1.0000 0.8333 0.0000
vt 1.0000 1.0000 0.0000
vt 0.0000 0.8333 0.0000
vt 0.3333 0.0000 0.0000
vt 0.1667 0.1667 0.0000
vt 1.0000 0.1667 0.0000
vt 0.6667 1.0000 0.0000
vt 0.0000 0.6667 0.0000
vt 0.5000 0.0000 0.0000
vt 1.0000 0.3333 0.0000
vt 0.5000 1.0000 0.0000
vt 0.0000 0.5000 0.0000
vt 0.6667 0.0000 0.0000
vt 1.0000 0.5000 0.0000
vt 0.3333 1.0000 0.0000
vt 0.0000 0.3333 0.0000
vt 1.0000 0.6667 0.0000
# 49 texture coords

g Box001
usemtl Material__4
s 1
f 1/1/1 2/2/2 3/3/3 
f 4/4/2 5/5/4 2/2/2 
f 6/6/4 7/7/2 5/5/4 
f 8/8/2 9/9/1 7/7/2 
f 3/3/3 10/10/2 11/11/4 
f 2/2/2 12/12/5 10/10/2 
f 5/5/4 13/13/2 12/12/5 
f 7/7/2 14/14/3 13/13/2 
f 11/11/4 15/15/2 16/16/2 
f 10/10/2 17/17/3 15/15/2 
f 12/12/5 18/18/2 17/17/3 
f 13/13/2 19/19/3 18/18/2 
f 16/16/2 20/20/2 21/21/3 
f 15/15/2 22/22/6 20/20/2 
f 17/17/3 23/23/6 22/22/6 
f 18/18/2 24/24/7 23/23/6 
f 25/25/5 1/1/1 26/26/8 
f 27/27/5 28/28/5 29/29/5 
f 30/30/5 24/24/7 31/31/8 
f 32/32/3 33/33/5 34/34/5 
f 35/35/7 4/4/2 1/1/1 
f 36/36/8 37/37/6 27/27/5 
f 38/38/6 23/23/6 24/24/7 
f 39/39/5 21/21/3 32/32/3 
f 40/40/9 6/6/4 4/4/2 
f 41/41/10 9/9/1 36/36/8 
f 42/42/5 22/22/6 23/23/6 
f 43/43/10 16/16/2 39/39/5 
f 44/44/6 8/8/2 6/6/4 
f 45/45/10 14/14/3 41/41/10 
f 46/46/7 20/20/2 22/22/6 
f 47/47/11 11/11/4 43/43/10 
f 48/48/5 37/37/6 8/8/2 
f 31/31/8 19/19/3 45/45/10 
f 49/49/5 21/21/3 20/20/2 
f 26/26/8 3/3/3 47/47/11 
s 2
f 50/1/12 51/2/13 52/3/14 
f 53/4/15 54/5/13 51/2/13 
f 55/6/15 56/7/13 54/5/13 
f 57/8/15 58/9/16 56/7/13 
f 52/3/14 59/10/13 60/11/17 
f 51/2/13 61/12/13 59/10/13 
f 54/5/13 62/13/13 61/12/13 
f 56/7/13 63/14/18 62/13/13 
f 60/11/17 64/15/13 65/16/18 
f 59/10/13 66/17/13 64/15/13 
f 61/12/13 67/18/13 66/17/13 
f 62/13/13 68/19/18 67/18/13 
f 65/16/18 69/20/13 70/21/18 
f 64/15/13 71/22/15 69/20/13 
f 66/17/13 72/23/15 71/22/15 
f 67/18/13 73/24/19 72/23/15 
f 34/25/20 50/1/12 74/26/21 
f 75/27/22 38/28/15 30/29/22 
f 76/30/20 73/24/19 77/31/23 
f 78/32/18 79/33/22 80/34/22 
f 33/35/22 53/4/15 50/1/12 
f 81/36/14 82/37/15 75/27/22 
f 83/38/15 72/23/15 73/24/19 
f 84/39/20 70/21/18 78/32/18 
f 49/40/22 55/6/15 53/4/15 
f 85/41/14 58/9/16 81/36/14 
f 86/42/22 71/22/15 72/23/15 
f 87/43/12 65/16/18 84/39/20 
f 46/44/19 57/8/15 55/6/15 
f 88/45/12 63/14/18 85/41/14 
f 89/46/19 69/20/13 71/22/15 
f 90/47/23 60/11/17 87/43/12 
f 42/48/22 82/37/15 57/8/15 
f 77/31/23 68/19/18 88/45/12 
f 91/49/22 70/21/18 69/20/13 
f 74/26/21 52/3/14 90/47/23 
s 4
f 92/1/24 93/2/25 94/3/26 
f 95/4/27 96/5/28 93/2/25 
f 97/6/29 98/7/25 96/5/28 
f 99/8/25 100/9/24 98/7/25 
f 94/3/26 101/10/25 102/11/28 
f 93/2/25 103/12/28 101/10/25 
f 96/5/28 104/13/25 103/12/28 
f 98/7/25 105/14/26 104/13/25 
f 102/11/28 106/15/25 107/16/25 
f 101/10/25 108/17/26 106/15/25 
f 103/12/28 109/18/25 108/17/26 
f 104/13/25 110/19/26 109/18/25 
f 107/16/25 111/20/25 112/21/26 
f 106/15/25 113/22/27 111/20/25 
f 108/17/26 114/23/27 113/22/27 
f 109/18/25 115/24/30 114/23/27 
f 80/25/31 92/1/24 116/26/32 
f 117/27/31 83/28/27 76/29/28 
f 118/30/31 115/24/30 119/31/32 
f 120/32/26 121/33/28 122/34/28 
f 79/35/31 95/4/27 92/1/24 
f 123/36/32 124/37/27 117/27/31 
f 125/38/27 114/23/27 115/24/30 
f 126/39/31 112/21/26 120/32/26 
f 91/40/31 97/6/29 95/4/27 
f 127/41/33 100/9/24 123/36/32 
f 128/42/31 113/22/27 114/23/27 
f 129/43/33 107/16/25 126/39/31 
f 89/44/30 99/8/25 97/6/29 
f 130/45/34 105/14/26 127/41/33 
f 131/46/30 111/20/25 113/22/27 
f 132/47/34 102/11/28 129/43/33 
f 86/48/26 124/37/27 99/8/25 
f 119/31/32 110/19/26 130/45/34 
f 133/49/28 112/21/26 111/20/25 
f 116/26/32 94/3/26 132/47/34 
s 8
f 134/1/35 135/2/36 136/3/37 
f 137/4/38 138/5/36 135/2/36 
f 139/6/38 140/7/36 138/5/36 
f 141/8/38 142/9/39 140/7/36 
f 136/3/37 143/10/36 144/11/40 
f 135/2/36 145/12/36 143/10/36 
f 138/5/36 146/13/36 145/12/36 
f 140/7/36 147/14/41 146/13/36 
f 144/11/40 148/15/36 149/16/41 
f 143/10/36 150/17/36 148/15/36 
f 145/12/36 151/18/36 150/17/36 
f 146/13/36 152/19/41 151/18/36 
f 149/16/41 153/20/36 154/21/41 
f 148/15/36 155/22/38 153/20/36 
f 150/17/36 156/23/38 155/22/38 
f 151/18/36 157/24/42 156/23/38 
f 122/25/43 134/1/35 158/26/44 
f 159/27/45 125/28/38 118/29/39 
f 29/30/43 157/24/42 160/31/46 
f 161/32/41 35/33/40 25/34/39 
f 121/35/45 137/4/38 134/1/35 
f 162/36/37 163/37/38 159/27/45 
f 28/38/45 156/23/38 157/24/42 
f 164/39/43 154/21/41 161/32/41 
f 133/40/45 139/6/38 137/4/38 
f 165/41/37 142/9/39 162/36/37 
f 48/42/45 155/22/38 156/23/38 
f 166/43/35 149/16/41 164/39/43 
f 131/44/42 141/8/38 139/6/38 
f 167/45/37 147/14/41 165/41/37 
f 44/46/38 153/20/36 155/22/38 
f 168/47/46 144/11/40 166/43/35 
f 128/48/45 163/37/38 141/8/38 
f 160/31/46 152/19/41 167/45/37 
f 40/49/45 154/21/41 153/20/36 
f 158/26/44 136/3/37 168/47/46 
s 16
f 169/24/47 170/18/47 171/19/47 
f 172/23/47 173/17/47 170/18/47 
f 174/22/47 175/15/47 173/17/47 
f 176/20/47 177/16/47 175/15/47 
f 171/19/47 178/13/47 179/14/47 
f 170/18/47 180/12/47 178/13/47 
f 173/17/47 181/10/47 180/12/47 
f 175/15/47 182/11/47 181/10/47 
f 179/14/47 183/7/47 184/9/47 
f 178/13/47 185/5/47 183/7/47 
f 180/12/47 186/2/47 185/5/47 
f 181/10/47 187/3/47 186/2/47 
f 184/9/47 188/8/47 189/37/47 
f 183/7/47 190/6/47 188/8/47 
f 185/5/47 191/4/47 190/6/47 
f 186/2/47 192/1/47 191/4/47 
f 29/30/47 169/24/47 27/31/47 
f 119/32/47 159/33/47 118/34/47 
f 76/25/47 192/1/47 117/26/47 
f 31/27/47 75/28/47 30/29/47 
f 160/38/47 172/23/47 169/24/47 
f 130/39/47 193/21/47 119/32/47 
f 77/35/47 191/4/47 192/1/47 
f 45/36/47 189/37/47 31/27/47 
f 167/42/47 174/22/47 172/23/47 
f 127/43/47 177/16/47 130/39/47 
f 88/40/47 190/6/47 191/4/47 
f 41/41/47 184/9/47 45/36/47 
f 165/46/47 176/20/47 174/22/47 
f 123/47/47 182/11/47 127/43/47 
f 85/44/47 188/8/47 190/6/47 
f 36/45/47 179/14/47 41/41/47 
f 162/49/47 193/21/47 176/20/47 
f 117/26/47 187/3/47 123/47/47 
f 81/48/47 189/37/47 188/8/47 
f 27/31/47 171/19/47 36/45/47 
s 32
f 194/1/48 195/2/49 196/3/50 
f 197/4/51 198/5/49 195/2/49 
f 199/6/51 200/7/49 198/5/49 
f 201/8/51 202/9/49 200/7/49 
f 196/3/50 203/10/49 204/11/50 
f 195/2/49 205/12/49 203/10/49 
f 198/5/49 206/13/49 205/12/49 
f 200/7/49 207/14/50 206/13/49 
f 204/11/50 208/15/51 209/16/48 
f 203/10/49 210/17/51 208/15/51 
f 205/12/49 211/18/49 210/17/51 
f 206/13/49 212/19/50 211/18/49 
f 209/16/48 213/20/49 214/21/50 
f 208/15/51 215/22/49 213/20/49 
f 210/17/51 216/23/51 215/22/49 
f 211/18/49 217/24/50 216/23/51 
f 122/25/51 194/1/48 120/26/48 
f 26/27/51 161/28/49 25/29/49 
f 34/30/48 217/24/50 32/31/50 
f 116/32/51 78/33/48 80/34/51 
f 158/35/51 197/4/51 194/1/48 
f 47/36/49 218/37/51 26/27/51 
f 74/38/48 216/23/51 217/24/50 
f 132/39/50 214/21/50 116/32/51 
f 168/40/48 199/6/51 197/4/51 
f 43/41/48 202/9/49 47/36/49 
f 90/42/51 215/22/49 216/23/51 
f 129/43/50 209/16/48 132/39/50 
f 166/44/48 201/8/51 199/6/51 
f 39/45/48 207/14/50 43/41/48 
f 87/46/51 213/20/49 215/22/49 
f 126/47/50 204/11/50 129/43/50 
f 164/48/50 218/37/51 201/8/51 
f 32/31/50 212/19/50 39/45/48 
f 84/49/51 214/21/50 213/20/49 
f 120/26/48 196/3/50 126/47/50 
s 1
f 1/1/1 4/4/2 2/2/2 
f 4/4/2 6/6/4 5/5/4 
f 6/6/4 8/8/2 7/7/2 
f 8/8/2 37/37/6 9/9/1 
f 3/3/3 2/2/2 10/10/2 
f 2/2/2 5/5/4 12/12/5 
f 5/5/4 7/7/2 13/13/2 
f 7/7/2 9/9/1 14/14/3 
f 11/11/4 10/10/2 15/15/2 
f 10/10/2 12/12/5 17/17/3 
f 12/12/5 13/13/2 18/18/2 
f 13/13/2 14/14/3 19/19/3 
f 16/16/2 15/15/2 20/20/2 
f 15/15/2 17/17/3 22/22/6 
f 17/17/3 18/18/2 23/23/6 
f 18/18/2 19/19/3 24/24/7 
f 25/25/5 35/35/7 1/1/1 
f 27/27/5 37/37/6 28/28/5 
f 30/30/5 38/38/6 24/24/7 
f 32/32/3 21/21/3 33/33/5 
f 35/35/7 40/40/9 4/4/2 
f 36/36/8 9/9/1 37/37/6 
f 38/38/6 42/42/5 23/23/6 
f 39/39/5 16/16/2 21/21/3 
f 40/40/9 44/44/6 6/6/4 
f 41/41/10 14/14/3 9/9/1 
f 42/42/5 46/46/7 22/22/6 
f 43/43/10 11/11/4 16/16/2 
f 44/44/6 48/48/5 8/8/2 
f 45/45/10 19/19/3 14/14/3 
f 46/46/7 49/49/5 20/20/2 
f 47/47/11 3/3/3 11/11/4 
f 48/48/5 28/28/5 37/37/6 
f 31/31/8 24/24/7 19/19/3 
f 49/49/5 33/33/5 21/21/3 
f 26/26/8 1/1/1 3/3/3 
s 2
f 50/1/12 53/4/15 51/2/13 
f 53/4/15 55/6/15 54/5/13 
f 55/6/15 57/8/15 56/7/13 
f 57/8/15 82/37/15 58/9/16 
f 52/3/14 51/2/13 59/10/13 
f 51/2/13 54/5/13 61/12/13 
f 54/5/13 56/7/13 62/13/13 
f 56/7/13 58/9/16 63/14/18 
f 60/11/17 59/10/13 64/15/13 
f 59/10/13 61/12/13 66/17/13 
f 61/12/13 62/13/13 67/18/13 
f 62/13/13 63/14/18 68/19/18 
f 65/16/18 64/15/13 69/20/13 
f 64/15/13 66/17/13 71/22/15 
f 66/17/13 67/18/13 72/23/15 
f 67/18/13 68/19/18 73/24/19 
f 34/25/20 33/35/22 50/1/12 
f 75/27/22 82/37/15 38/28/15 
f 76/30/20 83/38/15 73/24/19 
f 78/32/18 70/21/18 79/33/22 
f 33/35/22 49/40/22 53/4/15 
f 81/36/14 58/9/16 82/37/15 
f 83/38/15 86/42/22 72/23/15 
f 84/39/20 65/16/18 70/21/18 
f 49/40/22 46/44/19 55/6/15 
f 85/41/14 63/14/18 58/9/16 
f 86/42/22 89/46/19 71/22/15 
f 87/43/12 60/11/17 65/16/18 
f 46/44/19 42/48/22 57/8/15 
f 88/45/12 68/19/18 63/14/18 
f 89/46/19 91/49/22 69/20/13 
f 90/47/23 52/3/14 60/11/17 
f 42/48/22 38/28/15 82/37/15 
f 77/31/23 73/24/19 68/19/18 
f 91/49/22 79/33/22 70/21/18 
f 74/26/21 50/1/12 52/3/14 
s 4
f 92/1/24 95/4/27 93/2/25 
f 95/4/27 97/6/29 96/5/28 
f 97/6/29 99/8/25 98/7/25 
f 99/8/25 124/37/27 100/9/24 
f 94/3/26 93/2/25 101/10/25 
f 93/2/25 96/5/28 103/12/28 
f 96/5/28 98/7/25 104/13/25 
f 98/7/25 100/9/24 105/14/26 
f 102/11/28 101/10/25 106/15/25 
f 101/10/25 103/12/28 108/17/26 
f 103/12/28 104/13/25 109/18/25 
f 104/13/25 105/14/26 110/19/26 
f 107/16/25 106/15/25 111/20/25 
f 106/15/25 108/17/26 113/22/27 
f 108/17/26 109/18/25 114/23/27 
f 109/18/25 110/19/26 115/24/30 
f 80/25/31 79/35/31 92/1/24 
f 117/27/31 124/37/27 83/28/27 
f 118/30/31 125/38/27 115/24/30 
f 120/32/26 112/21/26 121/33/28 
f 79/35/31 91/40/31 95/4/27 
f 123/36/32 100/9/24 124/37/27 
f 125/38/27 128/42/31 114/23/27 
f 126/39/31 107/16/25 112/21/26 
f 91/40/31 89/44/30 97/6/29 
f 127/41/33 105/14/26 100/9/24 
f 128/42/31 131/46/30 113/22/27 
f 129/43/33 102/11/28 107/16/25 
f 89/44/30 86/48/26 99/8/25 
f 130/45/34 110/19/26 105/14/26 
f 131/46/30 133/49/28 111/20/25 
f 132/47/34 94/3/26 102/11/28 
f 86/48/26 83/28/27 124/37/27 
f 119/31/32 115/24/30 110/19/26 
f 133/49/28 121/33/28 112/21/26 
f 116/26/32 92/1/24 94/3/26 
s 8
f 134/1/35 137/4/38 135/2/36 
f 137/4/38 139/6/38 138/5/36 
f 139/6/38 141/8/38 140/7/36 
f 141/8/38 163/37/38 142/9/39 
f 136/3/37 135/2/36 143/10/36 
f 135/2/36 138/5/36 145/12/36 
f 138/5/36 140/7/36 146/13/36 
f 140/7/36 142/9/39 147/14/41 
f 144/11/40 143/10/36 148/15/36 
f 143/10/36 145/12/36 150/17/36 
f 145/12/36 146/13/36 151/18/36 
f 146/13/36 147/14/41 152/19/41 
f 149/16/41 148/15/36 153/20/36 
f 148/15/36 150/17/36 155/22/38 
f 150/17/36 151/18/36 156/23/38 
f 151/18/36 152/19/41 157/24/42 
f 122/25/43 121/35/45 134/1/35 
f 159/27/45 163/37/38 125/28/38 
f 29/30/43 28/38/45 157/24/42 
f 161/32/41 154/21/41 35/33/40 
f 121/35/45 133/40/45 137/4/38 
f 162/36/37 142/9/39 163/37/38 
f 28/38/45 48/42/45 156/23/38 
f 164/39/43 149/16/41 154/21/41 
f 133/40/45 131/44/42 139/6/38 
f 165/41/37 147/14/41 142/9/39 
f 48/42/45 44/46/38 155/22/38 
f 166/43/35 144/11/40 149/16/41 
f 131/44/42 128/48/45 141/8/38 
f 167/45/37 152/19/41 147/14/41 
f 44/46/38 40/49/45 153/20/36 
f 168/47/46 136/3/37 144/11/40 
f 128/48/45 125/28/38 163/37/38 
f 160/31/46 157/24/42 152/19/41 
f 40/49/45 35/33/40 154/21/41 
f 158/26/44 134/1/35 136/3/37 
s 16
f 169/24/47 172/23/47 170/18/47 
f 172/23/47 174/22/47 173/17/47 
f 174/22/47 176/20/47 175/15/47 
f 176/20/47 193/21/47 177/16/47 
f 171/19/47 170/18/47 178/13/47 
f 170/18/47 173/17/47 180/12/47 
f 173/17/47 175/15/47 181/10/47 
f 175/15/47 177/16/47 182/11/47 
f 179/14/47 178/13/47 183/7/47 
f 178/13/47 180/12/47 185/5/47 
f 180/12/47 181/10/47 186/2/47 
f 181/10/47 182/11/47 187/3/47 
f 184/9/47 183/7/47 188/8/47 
f 183/7/47 185/5/47 190/6/47 
f 185/5/47 186/2/47 191/4/47 
f 186/2/47 187/3/47 192/1/47 
f 29/30/47 160/38/47 169/24/47 
f 119/32/47 193/21/47 159/33/47 
f 76/25/47 77/35/47 192/1/47 
f 31/27/47 189/37/47 75/28/47 
f 160/38/47 167/42/47 172/23/47 
f 130/39/47 177/16/47 193/21/47 
f 77/35/47 88/40/47 191/4/47 
f 45/36/47 184/9/47 189/37/47 
f 167/42/47 165/46/47 174/22/47 
f 127/43/47 182/11/47 177/16/47 
f 88/40/47 85/44/47 190/6/47 
f 41/41/47 179/14/47 184/9/47 
f 165/46/47 162/49/47 176/20/47 
f 123/47/47 187/3/47 182/11/47 
f 85/44/47 81/48/47 188/8/47 
f 36/45/47 171/19/47 179/14/47 
f 162/49/47 159/33/47 193/21/47 
f 117/26/47 192/1/47 187/3/47 
f 81/48/47 75/28/47 189/37/47 
f 27/31/47 169/24/47 171/19/47 
s 32
f 194/1/48 197/4/51 195/2/49 
f 197/4/51 199/6/51 198/5/49 
f 199/6/51 201/8/51 200/7/49 
f 201/8/51 218/37/51 202/9/49 
f 196/3/50 195/2/49 203/10/49 
f 195/2/49 198/5/49 205/12/49 
f 198/5/49 200/7/49 206/13/49 
f 200/7/49 202/9/49 207/14/50 
f 204/11/50 203/10/49 208/15/51 
f 203/10/49 205/12/49 210/17/51 
f 205/12/49 206/13/49 211/18/49 
f 206/13/49 207/14/50 212/19/50 
f 209/16/48 208/15/51 213/20/49 
f 208/15/51 210/17/51 215/22/49 
f 210/17/51 211/18/49 216/23/51 
f 211/18/49 212/19/50 217/24/50 
f 122/25/51 158/35/51 194/1/48 
f 26/27/51 218/37/51 161/28/49 
f 34/30/48 74/38/48 217/24/50 
f 116/32/51 214/21/50 78/33/48 
f 158/35/51 168/40/48 197/4/51 
f 47/36/49 202/9/49 218/37/51 
f 74/38/48 90/42/51 216/23/51 
f 132/39/50 209/16/48 214/21/50 
f 168/40/48 166/44/48 199/6/51 
f 43/41/48 207/14/50 202/9/49 
f 90/42/51 87/46/51 215/22/49 
f 129/43/50 204/11/50 209/16/48 
f 166/44/48 164/48/50 201/8/51 
f 39/45/48 212/19/50 207/14/50 
f 87/46/51 84/49/51 213/20/49 
f 126/47/50 196/3/50 204/11/50 
f 164/48/50 161/28/49 218/37/51 
f 32/31/50 217/24/50 212/19/50 
f 84/49/51 78/33/48 214/21/50 
f 120/26/48 194/1/48 196/3/50 
# 0 polygons - 432 triangles

