# 3ds Max Wavefront OBJ Exporter v0.97b - (c)2007 guruware
# File Created: 14.09.2012 15:42:42

mtllib frame.mtl

#
# object Box001
#

v  -2.5883 0.0000 25.2065
v  -2.5883 0.0000 -24.7935
v  2.4008 0.0000 -24.7935
v  2.4008 0.0000 25.2065
v  -2.5883 50.0000 25.2065
v  2.4008 50.0000 25.2065
v  2.4008 50.0000 -24.7935
v  -2.5883 50.0000 -24.7935
v  -2.7391 3.2942 21.9123
v  -2.7391 3.2942 -21.4993
v  -2.7391 46.7058 21.9123
v  -2.7391 46.7058 -21.4993
v  1.7999 3.2942 21.9123
v  1.7999 3.2942 -21.4993
v  1.7999 46.7058 21.9123
v  1.7999 46.7058 -21.4993
# 16 vertices

vn 0.0000 -1.0000 -0.0000
vn 0.0000 1.0000 -0.0000
vn 0.0000 0.0000 1.0000
vn 0.0000 0.0000 -1.0000
vn -0.9990 -0.0457 -0.0000
vn -0.9990 0.0000 0.0457
vn -0.9990 0.0457 -0.0000
vn -0.9990 0.0000 -0.0457
# 8 vertex normals

vt 0.8424 0.3936 0.0000
vt 0.1544 0.3936 0.0000
vt 0.1544 0.3181 0.0000
vt 0.8424 0.3181 0.0000
vt 0.1544 0.2990 0.0000
vt 0.1544 0.2236 0.0000
vt 0.8424 0.2236 0.0000
vt 0.8424 0.2990 0.0000
vt 0.1544 0.2045 0.0000
vt 0.1544 0.1290 0.0000
vt 0.8424 0.1290 0.0000
vt 0.8424 0.2045 0.0000
vt 0.1544 0.4881 0.0000
vt 0.1544 0.4127 0.0000
vt 0.8424 0.4127 0.0000
vt 0.8424 0.4881 0.0000
vt 0.0100 0.0100 0.0000
vt 0.9900 0.0100 0.0000
vt 0.9254 0.0746 0.0000
vt 0.0746 0.0746 0.0000
vt 0.9900 0.9900 0.0000
vt 0.9254 0.9254 0.0000
vt 0.0100 0.9900 0.0000
vt 0.0746 0.9254 0.0000
vt 0.8313 0.5889 0.0000
vt 0.1529 0.5889 0.0000
vt 0.1529 0.5068 0.0000
vt 0.8313 0.5068 0.0000
vt 0.1529 0.8139 0.0000
vt 0.8313 0.8139 0.0000
vt 0.8313 0.8959 0.0000
vt 0.1529 0.8959 0.0000
vt 0.8313 0.6912 0.0000
vt 0.1529 0.6912 0.0000
vt 0.1529 0.6092 0.0000
vt 0.8313 0.6092 0.0000
vt 0.8313 0.7936 0.0000
vt 0.1529 0.7936 0.0000
vt 0.1529 0.7115 0.0000
vt 0.8313 0.7115 0.0000
# 40 texture coords

g Box001
usemtl 01___Default
s 2
f 1/1/1 2/2/1 3/3/1 
f 3/3/1 4/4/1 1/1/1 
s 4
f 5/5/2 6/6/2 7/7/2 
f 7/7/2 8/8/2 5/5/2 
s 8
f 1/9/3 4/10/3 6/11/3 
f 6/11/3 5/12/3 1/9/3 
s 32
f 3/13/4 2/14/4 8/15/4 
f 8/15/4 7/16/4 3/13/4 
s off
f 2/17/5 1/18/5 9/19/5 
f 9/19/5 10/20/5 2/17/5 
f 1/18/6 5/21/6 11/22/6 
f 11/22/6 9/19/6 1/18/6 
f 5/21/7 8/23/7 12/24/7 
f 12/24/7 11/22/7 5/21/7 
f 8/23/8 2/17/8 10/20/8 
f 10/20/8 12/24/8 8/23/8 
f 10/25/2 9/26/2 13/27/2 
f 13/27/2 14/28/2 10/25/2 
f 9/29/4 11/30/4 15/31/4 
f 15/31/4 13/32/4 9/29/4 
f 11/33/1 12/34/1 16/35/1 
f 16/35/1 15/36/1 11/33/1 
f 12/37/3 10/38/3 14/39/3 
f 14/39/3 16/40/3 12/37/3 
# 24 faces

