# 3ds Max Wavefront OBJ Exporter v0.97b - (c)2007 guruware
# File Created: 08.09.2012 22:18:02

mtllib stairs.mtl

#
# object Object04
#

v  -108.1793 90.4168 206.2610
v  -162.2286 90.4094 206.2627
v  -162.2070 97.2593 206.3260
v  -108.1822 97.2593 206.3260
v  -162.2070 97.2437 195.3125
v  -108.1822 97.2437 195.3125
v  -162.2070 103.5391 195.3093
v  -108.1822 103.5391 195.3093
v  -162.2070 103.5331 184.2807
v  -108.1822 103.5331 184.2807
v  -162.2070 109.8382 184.2623
v  -108.1822 109.8382 184.2623
v  -162.2070 109.8226 173.2488
v  -108.1822 109.8226 173.2488
v  -162.2070 116.1180 173.2456
v  -108.1822 116.1180 173.2456
v  -162.2096 116.1178 162.2332
v  -108.1847 116.1178 162.2332
v  -162.2122 122.4286 162.2311
v  -108.1873 122.4286 162.2311
v  -162.2122 122.4129 151.2175
v  -108.1873 122.4129 151.2175
v  -162.2122 128.7084 151.2143
v  -108.1873 128.7084 151.2143
v  -162.2122 128.7024 140.1857
v  -108.1873 128.7024 140.1857
v  -162.2122 135.0075 140.1674
v  -108.1873 135.0075 140.1674
v  -162.2122 134.9919 129.1538
v  -108.1873 134.9919 129.1538
v  -162.2122 141.2873 129.1506
v  -108.1873 141.2873 129.1506
v  -162.2096 141.2853 118.1379
v  -108.1848 141.2853 118.1379
v  -162.2070 147.5943 118.1355
v  -108.1822 147.5943 118.1355
v  -162.2070 147.5787 107.1220
v  -108.1822 147.5787 107.1220
v  -162.2070 153.8742 107.1188
v  -108.1822 153.8742 107.1188
v  -225.8335 27.4840 107.0551
v  -171.8087 27.4840 107.0551
v  -171.8087 33.7951 107.0551
v  -225.8335 33.7951 107.0551
v  -171.8087 33.7795 118.0687
v  -225.8335 33.7795 118.0687
v  -171.8087 40.0750 118.0719
v  -225.8335 40.0750 118.0719
v  -171.8087 40.0690 129.1005
v  -225.8335 40.0690 129.1005
v  -171.8087 46.3741 129.1189
v  -225.8335 46.3741 129.1189
v  -171.8087 46.3584 140.1324
v  -225.8335 46.3584 140.1324
v  -171.8087 52.6539 140.1356
v  -225.8335 52.6539 140.1356
v  -171.8062 52.6536 151.1480
v  -225.8310 52.6536 151.1480
v  -171.8036 58.9644 151.1501
v  -225.8284 58.9644 151.1501
v  -171.8036 58.9488 162.1637
v  -225.8284 58.9488 162.1636
v  -171.8036 65.2443 162.1669
v  -225.8284 65.2443 162.1668
v  -171.8036 65.2383 173.1955
v  -225.8284 65.2383 173.1955
v  -171.8036 71.5434 173.2138
v  -225.8284 71.5434 173.2138
v  -171.8036 71.5277 184.2273
v  -225.8284 71.5277 184.2273
v  -171.8036 77.8232 184.2305
v  -225.8284 77.8232 184.2305
v  -171.8061 77.8212 195.2433
v  -225.8309 77.8212 195.2433
v  -171.8087 84.1302 195.2457
v  -225.8335 84.1302 195.2457
v  -171.8087 84.1146 206.2592
v  -225.8335 84.1146 206.2592
v  -171.8087 90.4100 206.2624
v  -225.8335 90.4100 206.2624
v  -171.8087 90.4040 234.5858
v  -225.8335 90.4040 234.5858
v  -162.2286 90.4034 234.5861
v  -108.1749 90.4017 234.5866
# 84 vertices

vn 0.0000 -0.7037 -0.7105
vn 0.0000 -0.8939 -0.4482
vn -0.0000 -0.7036 -0.7106
vn -0.0000 -0.7041 -0.7101
vn -0.0000 -0.7078 -0.7064
vn -0.0000 -0.7075 -0.7067
vn -0.0000 -0.7083 -0.7059
vn -0.0000 -0.7086 -0.7056
vn -0.0000 -0.7073 -0.7069
vn -0.0000 -0.7072 -0.7070
vn -0.0000 -0.7071 -0.7071
vn 0.0000 -0.7074 -0.7068
vn 0.0000 -0.7076 -0.7066
vn 0.0000 -0.7078 -0.7064
vn 0.0000 -0.7075 -0.7067
vn -0.0000 -0.7074 -0.7068
vn -0.0000 -0.7072 -0.7071
vn -0.0000 -0.7077 -0.7066
vn -0.0000 -0.0005 -1.0000
vn -0.0000 0.0000 1.0000
vn -0.0000 -0.7076 0.7066
vn -0.0000 -0.7078 0.7064
vn -0.0000 -0.7075 0.7067
vn -0.0000 -0.7083 0.7059
vn -0.0000 -0.7086 0.7056
vn -0.0000 -0.7073 0.7069
vn 0.0000 -0.7072 0.7070
vn -0.0000 -0.7071 0.7071
vn -0.0000 -0.7074 0.7068
vn 0.0000 -0.7083 0.7059
vn 0.0000 -0.7086 0.7056
vn 0.0000 -0.7078 0.7064
vn 0.0000 -0.7073 0.7069
vn 0.0000 -0.7074 0.7068
vn 0.0000 -0.7072 0.7071
vn 0.0000 -0.7077 0.7066
vn -0.0000 -0.8945 0.4470
vn 0.0000 -0.7074 0.7069
vn -0.0000 -1.0000 -0.0002
vn 0.0000 -1.0000 -0.0002
vn 0.0000 -1.0000 -0.0003
vn -0.0000 -1.0000 -0.0005
# 42 vertex normals

vt 0.9099 0.7293 0.0000
vt 0.0936 0.7294 0.0000
vt 0.0939 0.6071 0.0000
vt 0.9098 0.6071 0.0000
vt 0.8927 0.5271 0.0000
vt 0.1164 0.5271 0.0000
vt 0.1164 0.3823 0.0000
vt 0.8927 0.3823 0.0000
vt 0.9092 0.7219 0.0000
vt 0.0933 0.7219 0.0000
vt 0.0933 0.6094 0.0000
vt 0.9092 0.6094 0.0000
vt 0.8895 0.5412 0.0000
vt 0.1132 0.5412 0.0000
vt 0.1132 0.3962 0.0000
vt 0.8895 0.3962 0.0000
vt 0.9130 0.7246 0.0000
vt 0.0971 0.7246 0.0000
vt 0.0971 0.6119 0.0000
vt 0.9130 0.6119 0.0000
vt 0.8920 0.5385 0.0000
vt 0.1158 0.5385 0.0000
vt 0.1158 0.3937 0.0000
vt 0.8920 0.3937 0.0000
vt 0.9223 0.7234 0.0000
vt 0.1064 0.7234 0.0000
vt 0.1064 0.6110 0.0000
vt 0.9223 0.6110 0.0000
vt 0.8901 0.5394 0.0000
vt 0.1138 0.5394 0.0000
vt 0.1138 0.3946 0.0000
vt 0.8901 0.3946 0.0000
vt 0.9223 0.7240 0.0000
vt 0.1065 0.7240 0.0000
vt 0.1064 0.6113 0.0000
vt 0.9223 0.6113 0.0000
vt 0.8952 0.5350 0.0000
vt 0.1190 0.5350 0.0000
vt 0.1190 0.3901 0.0000
vt 0.8952 0.3901 0.0000
vt 0.9130 0.7234 0.0000
vt 0.0971 0.7234 0.0000
vt 0.0971 0.6110 0.0000
vt 0.9130 0.6110 0.0000
vt 0.9020 0.5301 0.0000
vt 0.1257 0.5301 0.0000
vt 0.1257 0.3851 0.0000
vt 0.9020 0.3851 0.0000
vt 0.9093 0.7277 0.0000
vt 0.0934 0.7277 0.0000
vt 0.0934 0.6151 0.0000
vt 0.9093 0.6151 0.0000
vt 0.9025 0.5356 0.0000
vt 0.1262 0.5356 0.0000
vt 0.1262 0.3908 0.0000
vt 0.9025 0.3908 0.0000
vt 0.9240 0.7152 0.0000
vt 0.1081 0.7152 0.0000
vt 0.1081 0.6027 0.0000
vt 0.9240 0.6027 0.0000
vt 0.8989 0.5267 0.0000
vt 0.1226 0.5267 0.0000
vt 0.1226 0.3819 0.0000
vt 0.8989 0.3819 0.0000
vt 0.9117 0.7192 0.0000
vt 0.0958 0.7192 0.0000
vt 0.0959 0.6065 0.0000
vt 0.9117 0.6065 0.0000
vt 0.8958 0.5255 0.0000
vt 0.1195 0.5255 0.0000
vt 0.1195 0.3807 0.0000
vt 0.8958 0.3807 0.0000
vt 0.9083 0.7276 0.0000
vt 0.0924 0.7276 0.0000
vt 0.0924 0.6151 0.0000
vt 0.9083 0.6151 0.0000
vt 0.9097 0.7292 0.0000
vt 0.0939 0.7292 0.0000
vt 0.0939 0.6165 0.0000
vt 0.9097 0.6165 0.0000
vt 0.1135 0.3961 0.0000
vt 0.8898 0.3961 0.0000
vt 0.8898 0.5409 0.0000
vt 0.1135 0.5409 0.0000
vt 0.9093 0.7296 0.0000
vt 0.0934 0.7296 0.0000
vt 0.0934 0.6171 0.0000
vt 0.9093 0.6171 0.0000
vt 0.1294 0.3955 0.0000
vt 0.9057 0.3955 0.0000
vt 0.9057 0.5405 0.0000
vt 0.1294 0.5405 0.0000
vt 0.9223 0.7208 0.0000
vt 0.1064 0.7208 0.0000
vt 0.1064 0.6082 0.0000
vt 0.9223 0.6082 0.0000
vt 0.1132 0.3952 0.0000
vt 0.8895 0.3952 0.0000
vt 0.8895 0.5400 0.0000
vt 0.1132 0.5400 0.0000
vt 0.9223 0.7217 0.0000
vt 0.1064 0.7217 0.0000
vt 0.1064 0.6092 0.0000
vt 0.9223 0.6092 0.0000
vt 0.1135 0.3956 0.0000
vt 0.8898 0.3956 0.0000
vt 0.8899 0.5404 0.0000
vt 0.1136 0.5404 0.0000
vt 0.9101 0.7297 0.0000
vt 0.0942 0.7297 0.0000
vt 0.0942 0.6169 0.0000
vt 0.9100 0.6169 0.0000
vt 0.1137 0.3952 0.0000
vt 0.8900 0.3952 0.0000
vt 0.8900 0.5400 0.0000
vt 0.1137 0.5400 0.0000
vt 0.9091 0.7294 0.0000
vt 0.0932 0.7294 0.0000
vt 0.0932 0.6169 0.0000
vt 0.9091 0.6169 0.0000
vt 0.1133 0.3959 0.0000
vt 0.8895 0.3959 0.0000
vt 0.8895 0.5409 0.0000
vt 0.1133 0.5409 0.0000
vt 0.9085 0.7256 0.0000
vt 0.0927 0.7256 0.0000
vt 0.0927 0.6130 0.0000
vt 0.9085 0.6130 0.0000
vt 0.1257 0.3837 0.0000
vt 0.9020 0.3837 0.0000
vt 0.9020 0.5285 0.0000
vt 0.1257 0.5285 0.0000
vt 0.9168 0.7179 0.0000
vt 0.1010 0.7179 0.0000
vt 0.1010 0.6055 0.0000
vt 0.9168 0.6055 0.0000
vt 0.1133 0.3962 0.0000
vt 0.8896 0.3962 0.0000
vt 0.8896 0.5410 0.0000
vt 0.1133 0.5410 0.0000
vt 0.9147 0.7246 0.0000
vt 0.0988 0.7246 0.0000
vt 0.0988 0.6119 0.0000
vt 0.9147 0.6119 0.0000
vt 0.1242 0.3866 0.0000
vt 0.9005 0.3866 0.0000
vt 0.9005 0.5314 0.0000
vt 0.1242 0.5314 0.0000
vt 0.9113 0.7288 0.0000
vt 0.0955 0.7288 0.0000
vt 0.0955 0.6164 0.0000
vt 0.9113 0.6164 0.0000
vt 0.0759 0.0646 0.0000
vt 0.4884 0.0646 0.0000
vt 0.4884 0.3377 0.0000
vt 0.0759 0.3377 0.0000
vt 0.5615 0.0646 0.0000
vt 0.5615 0.3377 0.0000
vt 0.9741 0.0646 0.0000
vt 0.9742 0.3377 0.0000
# 160 texture coords

g Object04
usemtl 09___Default
s 1
f 1/1/1 2/2/2 3/3/3 
f 3/3/3 4/4/4 1/1/1 
f 4/5/4 3/6/3 5/7/5 
f 5/7/5 6/8/5 4/5/4 
f 6/9/5 5/10/5 7/11/6 
f 7/11/6 8/12/6 6/9/5 
f 8/13/6 7/14/6 9/15/7 
f 9/15/7 10/16/7 8/13/6 
f 10/17/7 9/18/7 11/19/8 
f 11/19/8 12/20/8 10/17/7 
f 12/21/8 11/22/8 13/23/5 
f 13/23/5 14/24/5 12/21/8 
f 14/25/5 13/26/5 15/27/9 
f 15/27/9 16/28/10 14/25/5 
f 16/29/10 15/30/9 17/31/11 
f 17/31/11 18/32/12 16/29/10 
f 18/33/12 17/34/11 19/35/5 
f 19/35/5 20/36/13 18/33/12 
f 20/37/13 19/38/5 21/39/14 
f 21/39/14 22/40/5 20/37/13 
f 22/41/5 21/42/14 23/43/15 
f 23/43/15 24/44/6 22/41/5 
f 24/45/6 23/46/15 25/47/7 
f 25/47/7 26/48/7 24/45/6 
f 26/49/7 25/50/7 27/51/8 
f 27/51/8 28/52/8 26/49/7 
f 28/53/8 27/54/8 29/55/5 
f 29/55/5 30/56/5 28/53/8 
f 30/57/5 29/58/5 31/59/9 
f 31/59/9 32/60/16 30/57/5 
f 32/61/16 31/62/9 33/63/16 
f 33/63/16 34/64/17 32/61/16 
f 34/65/17 33/66/16 35/67/18 
f 35/67/18 36/68/5 34/65/17 
f 36/69/5 35/70/18 37/71/5 
f 37/71/5 38/72/5 36/69/5 
f 38/73/5 37/74/5 39/75/19 
f 39/75/19 40/76/19 38/73/5 
f 41/77/20 42/78/20 43/79/21 
f 43/79/21 44/80/21 41/77/20 
f 44/81/21 43/82/21 45/83/22 
f 45/83/22 46/84/22 44/81/21 
f 46/85/22 45/86/22 47/87/23 
f 47/87/23 48/88/23 46/85/22 
f 48/89/23 47/90/23 49/91/24 
f 49/91/24 50/92/24 48/89/23 
f 50/93/24 49/94/24 51/95/25 
f 51/95/25 52/96/25 50/93/24 
f 52/97/25 51/98/25 53/99/22 
f 53/99/22 54/100/22 52/97/25 
f 54/101/22 53/102/22 55/103/26 
f 55/103/26 56/104/27 54/101/22 
f 56/105/27 55/106/26 57/107/28 
f 57/107/28 58/108/29 56/105/27 
f 58/109/29 57/110/28 59/111/22 
f 59/111/22 60/112/21 58/109/29 
f 60/113/21 59/114/22 61/115/22 
f 61/115/22 62/116/22 60/113/21 
f 62/117/22 61/118/22 63/119/23 
f 63/119/23 64/120/23 62/117/22 
f 64/121/23 63/122/23 65/123/30 
f 65/123/30 66/124/30 64/121/23 
f 66/125/30 65/126/30 67/127/31 
f 67/127/31 68/128/31 66/125/30 
f 68/129/31 67/130/31 69/131/32 
f 69/131/32 70/132/32 68/129/31 
f 70/133/32 69/134/32 71/135/33 
f 71/135/33 72/136/34 70/133/32 
f 72/137/34 71/138/33 73/139/34 
f 73/139/34 74/140/35 72/137/34 
f 74/141/35 73/142/34 75/143/36 
f 75/143/36 76/144/32 74/141/35 
f 76/145/32 75/146/36 77/147/32 
f 77/147/32 78/148/32 76/145/32 
f 78/149/32 77/150/32 79/151/37 
f 79/151/37 80/152/38 78/149/32 
f 80/153/38 79/154/37 81/155/39 
f 81/155/39 82/156/40 80/153/38 
f 81/155/39 79/154/37 2/157/2 
f 2/157/2 83/158/41 81/155/39 
f 83/158/41 2/157/2 1/159/1 
f 1/159/1 84/160/42 83/158/41 
# 82 faces

